<svg width="20" height="20" viewBox="0 0 20 20" fill="none" xmlns="http://www.w3.org/2000/svg">
<path d="M9.93575 0.622559C6.16974 0.622559 3.10407 3.7074 3.10406 7.49694C3.10406 14.1649 9.55061 19.2341 9.55061 19.2341C9.66065 19.3225 9.79726 19.3706 9.93804 19.3706C10.0788 19.3706 10.2154 19.3225 10.3255 19.2341C10.3255 19.2341 16.772 14.1649 16.772 7.49694C16.772 3.7074 13.7018 0.622559 9.93575 0.622559ZM9.93575 1.87287C13.0304 1.87287 15.5295 4.38294 15.5295 7.49694C15.5295 12.9519 10.6206 17.2617 9.94034 17.8454C9.26327 17.2646 4.3466 12.954 4.34661 7.49694C4.34661 4.38294 6.84109 1.87287 9.93575 1.87287Z" fill="white"/>
<path d="M9.93576 4.37354C8.22795 4.37354 6.8317 5.77852 6.8317 7.497C6.83168 9.2155 8.22794 10.6251 9.93576 10.6251C11.6436 10.6251 13.0444 9.2155 13.0444 7.497C13.0444 5.77852 11.6436 4.37354 9.93576 4.37354ZM9.93576 5.62384C10.9722 5.62384 11.8019 6.45406 11.8019 7.497C11.8019 8.53993 10.9722 9.37476 9.93576 9.37476C8.89929 9.37476 8.07423 8.53993 8.07424 7.497C8.07424 6.45406 8.8993 5.62384 9.93576 5.62384Z" fill="white"/>
</svg>
