<svg width="26" height="24" viewBox="0 0 26 24" fill="none" xmlns="http://www.w3.org/2000/svg">
<path d="M12.0953 0.936975C12.3941 0.014513 13.6992 0.0145164 13.998 0.936978L16.2406 7.86035C16.3742 8.27281 16.7584 8.55219 17.1919 8.55219H24.4557C25.4236 8.55219 25.8269 9.79023 25.0446 10.3603L19.1628 14.647C18.8134 14.9016 18.6672 15.352 18.8005 15.7633L21.0459 22.6953C21.3445 23.6171 20.2887 24.3823 19.5056 23.8116L13.6356 19.5336C13.2846 19.2778 12.8087 19.2778 12.4577 19.5336L6.58774 23.8116C5.80464 24.3823 4.74883 23.6171 5.04744 22.6953L7.29283 15.7633C7.42606 15.352 7.27987 14.9016 6.93047 14.647L1.04866 10.3603C0.266385 9.79023 0.669658 8.55219 1.63763 8.55219H8.90138C9.33494 8.55219 9.71912 8.27281 9.85272 7.86035L12.0953 0.936975Z" fill="#CBC2FF"/>
</svg>
