<svg width="41" height="41" viewBox="0 0 41 41" fill="none" xmlns="http://www.w3.org/2000/svg">
<path d="M5.125 16.8341C5.125 15.0848 6.5431 13.6667 8.29242 13.6667V13.6667C9.49216 13.6667 10.5889 12.9889 11.1255 11.9158L12.5611 9.04452C13.099 7.96869 13.368 7.43077 13.8513 7.13207C14.3346 6.83337 14.936 6.83337 16.1388 6.83337H24.8612C26.064 6.83337 26.6654 6.83337 27.1487 7.13207C27.632 7.43077 27.901 7.96869 28.4389 9.04452L29.8745 11.9158C30.4111 12.9889 31.5078 13.6667 32.7076 13.6667V13.6667C34.4569 13.6667 35.875 15.0848 35.875 16.8341V28.1667C35.875 30.9951 35.875 32.4093 34.9963 33.288C34.1176 34.1667 32.7034 34.1667 29.875 34.1667H11.125C8.29657 34.1667 6.88236 34.1667 6.00368 33.288C5.125 32.4093 5.125 30.9951 5.125 28.1667V16.8341Z" stroke="#2F2B6D" stroke-width="3"/>
<path d="M25.8333 22.2083C25.8333 25.1539 23.4455 27.5417 20.5 27.5417C17.5545 27.5417 15.1667 25.1539 15.1667 22.2083C15.1667 19.2628 17.5545 16.875 20.5 16.875C23.4455 16.875 25.8333 19.2628 25.8333 22.2083Z" stroke="#2F2B6D" stroke-width="3"/>
</svg>
