<svg width="42" height="42" viewBox="0 0 42 42" fill="none" xmlns="http://www.w3.org/2000/svg">
<path d="M27.125 18.375L21.875 23.625L18.375 20.125L13.125 25.375" stroke="#2F2B6D" stroke-width="3" stroke-linecap="round" stroke-linejoin="round"/>
<path d="M24.5 8.75H10.2C9.07989 8.75 8.51984 8.75 8.09202 8.96799C7.71569 9.15973 7.40973 9.46569 7.21799 9.84202C7 10.2698 7 10.8299 7 11.95V31.8C7 32.9201 7 33.4802 7.21799 33.908C7.40973 34.2843 7.71569 34.5903 8.09202 34.782C8.51984 35 9.0799 35 10.2 35H30.05C31.1701 35 31.7302 35 32.158 34.782C32.5343 34.5903 32.8403 34.2843 33.032 33.908C33.25 33.4802 33.25 32.9201 33.25 31.8V17.5" stroke="#2F2B6D" stroke-width="3" stroke-linecap="round"/>
<ellipse cx="33.25" cy="8.75" rx="3.5" ry="3.5" fill="#2F2B6D"/>
</svg>
