<svg width="530" height="869" viewBox="0 0 530 869" fill="none" xmlns="http://www.w3.org/2000/svg">
<path d="M261.681 738.869C261.103 738.869 260.525 738.764 259.947 738.554L58.6107 665.999C55.9837 665.054 54.5913 662.139 55.5633 659.513C56.5091 656.887 59.4251 655.495 62.0521 656.467L263.388 729.022C266.015 729.967 267.408 732.882 266.436 735.508C265.7 737.583 263.756 738.869 261.681 738.869Z" fill="#6380FF"/>
<path d="M51.9643 738.869C49.8889 738.869 47.9449 737.583 47.1831 735.508C46.2374 732.882 47.6034 729.967 50.2305 728.996L253.957 655.233C256.584 654.287 259.5 655.653 260.472 658.279C261.418 660.905 260.052 663.819 257.425 664.791L53.6981 738.554C53.1202 738.79 52.5422 738.869 51.9643 738.869Z" fill="#6380FF"/>
<path d="M279.571 868.565C275.289 868.565 271.558 865.388 270.954 861.029L234.596 589.584H82.4379L46.6314 861.002C46.0009 865.755 41.64 869.117 36.8851 868.486C32.1302 867.856 28.7676 863.497 29.3981 858.744L66.2028 579.789C66.7808 575.456 70.4586 572.226 74.8195 572.226H242.241C246.601 572.226 250.279 575.456 250.857 579.763L288.24 858.718C288.87 863.471 285.534 867.856 280.779 868.486C280.359 868.539 279.965 868.565 279.571 868.565Z" fill="#6380FF"/>
<path d="M193.719 580.918H85.0124C50.572 580.918 13.6884 562.064 8.38177 528.058C1.31504 482.55 -0.445078 438.512 1.5252 398.073C3.75818 352.355 25.6151 309.814 61.553 281.454C61.553 281.454 83.2786 376.067 55.9574 506.656C66.413 556.234 193.719 580.918 193.719 580.918Z" fill="#6380FF"/>
<path d="M171.074 26.0011C171.074 26.0011 158.149 -5.14271 123.919 0.739427C100.013 4.83592 89.8199 34.6143 91.2123 80.621C93.2613 147.557 70.6163 187.891 70.6163 187.891L100.67 194.719C100.696 194.719 177.221 79.9645 171.074 26.0011Z" fill="#39393B"/>
<path d="M445.284 752.261H396.71C396.71 752.261 385.467 698.377 381.71 668.178C377.927 637.954 375.983 566.344 375.983 566.344C375.983 566.344 337.287 578.922 256.269 574.169C76.7636 563.692 144.83 431.869 144.83 431.869C150.899 440.245 188.045 434.442 213.448 438.434C291.392 445.918 358.96 476.484 399.521 493.972C409.294 498.174 417.963 502.638 425.582 507.339C435.354 513.352 441.475 531.655 445.179 555.682C456.239 627.922 445.284 752.261 445.284 752.261Z" fill="#39393B"/>
<path d="M402.726 726.291C401.912 726.291 401.203 725.713 401.019 724.899C394.005 690.236 391.666 647.092 389.775 612.429C388.199 583.675 386.728 556.523 383.024 553.266C380.029 550.614 367.603 552.689 351.893 555.288C320.605 560.488 273.318 568.313 221.198 556.208C192.8 549.59 171.915 535.804 159.147 515.216C137.107 479.713 147.168 435.676 147.273 435.23C147.483 434.284 148.429 433.707 149.375 433.943C150.321 434.153 150.899 435.098 150.662 436.044C150.557 436.464 140.863 479.136 162.142 513.404C174.411 533.178 194.56 546.439 222.012 552.82C273.476 564.794 320.342 557.022 351.368 551.875C369.941 548.802 381.158 546.938 385.388 550.667C389.959 554.711 391.246 574.563 393.295 612.245C395.187 646.803 397.525 689.79 404.486 724.216C404.67 725.161 404.066 726.081 403.12 726.264C402.963 726.264 402.858 726.291 402.726 726.291Z" fill="#585859"/>
<path d="M446.204 727.21H446.177L392.166 726.054C391.194 726.028 390.432 725.24 390.458 724.269C390.484 723.297 391.272 722.536 392.244 722.562L446.256 723.717C447.228 723.744 447.99 724.531 447.964 725.503C447.911 726.448 447.149 727.21 446.204 727.21Z" fill="#585859"/>
<path d="M443.945 814.444H409.662L403.068 774.241L399.443 752.261H442.027L442.71 774.241L443.945 814.444Z" fill="#EA9B7A"/>
<path d="M443.944 814.444H409.662L404.749 784.508L403.068 774.241H442.71L443.025 784.902L443.944 814.444Z" fill="#6380FF"/>
<path d="M443.025 784.902L404.749 784.508L403.068 774.241H442.71L443.025 784.902Z" fill="#C77E2E"/>
<path d="M528.535 868.565H398.891C397.919 866.806 397.393 864.337 397.183 861.37C396.369 850.394 399.863 832.905 401.57 821.876C401.781 820.589 401.964 819.381 402.096 818.304C402.332 816.466 402.49 814.917 402.49 813.788C402.49 804.781 410.45 806.33 410.45 806.33C423.559 819.197 438.428 799.896 447.097 806.225C447.097 806.225 447.438 806.488 448.253 807.092C448.988 807.669 450.092 808.562 451.615 809.849C453.822 811.687 456.922 814.365 461.125 818.147C471.423 827.416 488.919 833.509 503.815 839.732C505.706 840.52 507.466 841.334 509.121 842.122C510.356 842.726 511.538 843.33 512.642 843.907C524.831 850.472 528.693 856.775 529.586 861.344C530.427 865.755 528.535 868.565 528.535 868.565Z" fill="#0875F7"/>
<path d="M512.642 843.934C509.305 846.586 501.871 851.917 495.907 851.917C495.645 851.917 495.382 851.917 495.119 851.89C490.916 851.549 475.469 843.96 462.885 837.054C455.687 833.088 449.094 829.202 444.365 826.077C436.615 820.956 435.249 819.013 434.96 817.648C433.83 812.527 442.289 808.982 448.227 807.118C448.962 807.695 450.066 808.588 451.589 809.875C444.233 811.871 438.165 815.022 438.454 816.834C439.19 818.357 446.861 824.186 465.197 834.244C479.199 841.912 492.466 848.083 495.408 848.345C499.401 848.66 505.26 845.036 509.095 842.174C510.382 842.726 511.538 843.33 512.642 843.934Z" fill="#084FC7"/>
<path d="M528.535 868.565H398.891C397.919 866.806 397.393 864.337 397.183 861.37H529.612C530.426 865.755 528.535 868.565 528.535 868.565Z" fill="#084FC7"/>
<path d="M412.105 868.565H408.243C412.079 864.18 415.678 857.431 415.205 847.82C414.574 835.005 406.903 826.392 401.544 821.876C401.754 820.589 401.938 819.381 402.07 818.304C407.823 822.69 417.517 832.327 418.278 847.663C418.751 856.853 415.73 863.707 412.105 868.565Z" fill="#084FC7"/>
<path d="M458.919 825.815C457.973 825.815 457.08 825.158 456.843 824.186C456.554 823.031 457.264 821.876 458.393 821.587L466.484 819.565C467.64 819.276 468.796 819.985 469.085 821.114C469.374 822.27 468.665 823.425 467.535 823.714L459.444 825.736C459.286 825.788 459.103 825.815 458.919 825.815Z" fill="white"/>
<path d="M450.88 819.066C449.934 819.066 449.041 818.409 448.804 817.438C448.516 816.282 449.225 815.127 450.354 814.838L458.446 812.816C459.602 812.527 460.758 813.236 461.046 814.365C461.335 815.521 460.626 816.676 459.497 816.939L451.405 818.961C451.221 819.04 451.064 819.066 450.88 819.066Z" fill="white"/>
<path d="M467.036 830.515C466.09 830.515 465.197 829.858 464.961 828.887C464.672 827.731 465.381 826.576 466.511 826.313L474.602 824.291C475.758 824.003 476.914 824.712 477.203 825.841C477.492 826.996 476.782 828.152 475.653 828.44L467.562 830.462C467.378 830.489 467.194 830.515 467.036 830.515Z" fill="white"/>
<path d="M475.127 835.032C474.182 835.032 473.288 834.375 473.052 833.404C472.763 832.248 473.472 831.093 474.602 830.804L482.693 828.782C483.849 828.493 485.005 829.202 485.294 830.331C485.583 831.487 484.874 832.642 483.744 832.905L475.653 834.927C475.469 835.032 475.311 835.032 475.127 835.032Z" fill="white"/>
<path d="M483.954 839.233C483.009 839.233 482.115 838.577 481.879 837.605C481.59 836.45 482.299 835.294 483.429 835.032L491.52 833.01C492.676 832.721 493.832 833.43 494.121 834.559C494.41 835.714 493.701 836.87 492.571 837.159L484.48 839.181C484.296 839.207 484.138 839.233 483.954 839.233Z" fill="white"/>
<path d="M493.543 842.805C492.597 842.805 491.704 842.148 491.468 841.176C491.179 840.021 491.888 838.866 493.018 838.577L501.109 836.555C502.265 836.266 503.421 836.975 503.71 838.104C503.999 839.26 503.289 840.415 502.16 840.678L494.068 842.7C493.884 842.778 493.701 842.805 493.543 842.805Z" fill="white"/>
<path d="M54.9329 390.037C54.9329 390.037 53.4092 400.515 67.4376 403.456L213.711 408.34C213.711 408.34 223.589 403.377 221.802 391.14C221.776 391.114 160.014 356.451 54.9329 390.037Z" fill="#084FC7"/>
<path d="M215.681 438.407C139.76 480.16 56.8506 446.548 56.8506 446.548C60.8962 435.492 63.9173 423.019 66.0977 411.675C68.6197 398.466 70.0383 386.807 70.6951 380.689C102.981 378.929 182.16 375.542 213.186 382.894L213.422 395.315L215.681 438.407Z" fill="#EA9B7A"/>
<path d="M159.594 418.371C159.042 422.284 157.256 425.277 155.653 425.041C154.025 424.805 153.184 421.444 153.736 417.531C154.287 413.618 156.074 410.625 157.676 410.861C159.305 411.097 160.172 414.459 159.594 418.371Z" fill="#D96C63"/>
<path d="M213.422 395.315C181.083 393.346 117.483 392.663 66.0977 411.649C68.6197 398.44 70.0383 386.781 70.6951 380.663C102.981 378.903 182.16 375.516 213.186 382.868L213.422 395.315Z" fill="#D96C63"/>
<path d="M249.491 335.26C249.176 336.205 248.808 337.072 248.414 337.886C248.257 338.201 248.099 338.516 247.941 338.805C243.869 346.341 237.591 352.88 232.31 357.528C231.207 358.499 230.156 359.366 229.184 360.154C227.24 361.729 225.585 362.964 224.456 363.778C223.405 364.513 222.801 364.907 222.801 364.907C222.801 364.986 222.801 365.038 222.774 365.143C222.722 365.695 222.669 366.299 222.617 366.929C222.433 369.318 222.275 372.154 222.17 375.411C222.065 378.01 221.986 380.873 221.934 383.971C221.907 386.256 221.855 388.645 221.828 391.114C178.929 371.944 90.5555 384.05 54.9591 390.037C55.6159 386.965 56.1938 383.945 56.7455 381.004C59.2675 367.428 60.6861 355.217 61.2377 344.267C62.0784 327.986 60.6598 303.512 57.1921 278.224C56.9819 276.57 56.7455 274.942 56.5091 273.313C56.3515 272.237 56.1938 271.186 56.0099 270.11C54.8015 262.179 53.3829 254.223 51.7804 246.502C44.7662 212.838 49.6788 177.519 83.8302 173.343C86.2997 173.028 88.7428 172.766 91.1334 172.503C107.211 170.796 120.451 170.192 124.129 170.061C124.812 170.035 125.154 170.035 125.154 170.035L191.145 189.204L197.423 191.016C201.022 192.171 204.359 193.301 207.459 194.404C208.772 194.876 210.059 195.349 211.268 195.795C214.473 197.003 217.363 198.159 220.016 199.34C225.296 201.677 229.499 203.962 232.783 206.299C247.258 216.567 245.025 228.173 244.657 251.098C244.657 251.203 244.657 251.308 244.657 251.413C244.657 251.702 244.657 251.991 244.657 252.306C244.657 252.437 244.657 252.568 244.657 252.7C244.657 253.645 244.657 254.564 244.657 255.51C244.684 258.477 244.789 261.418 244.973 264.359C245.209 268.692 245.603 272.998 246.076 277.2C246.26 278.881 246.444 280.561 246.654 282.242C246.838 283.817 247.048 285.367 247.258 286.916C249.806 306.978 253.09 324.546 249.491 335.26Z" fill="#0875F7"/>
<path d="M244.579 251.413C244.579 251.702 244.579 251.991 244.579 252.306C244.579 252.437 244.579 252.568 244.579 252.7C244.579 253.645 244.579 254.564 244.579 255.509L230.708 264.201C230.288 264.464 229.815 264.543 229.342 264.464C228.816 264.385 228.344 264.07 228.028 263.597C227.45 262.678 227.739 261.497 228.633 260.919L243.344 251.702C243.738 251.465 244.158 251.36 244.579 251.413Z" fill="#084FC7"/>
<path d="M153.158 325.649C152.632 325.649 152.107 325.439 151.713 325.019C151.004 324.231 151.056 322.997 151.844 322.288L164.743 310.681C165.531 309.972 166.766 310.024 167.475 310.812C168.184 311.6 168.132 312.834 167.344 313.543L154.445 325.15C154.077 325.491 153.631 325.649 153.158 325.649Z" fill="#084FC7"/>
<path d="M247.153 286.89L238.326 294.846C237.959 295.188 237.486 295.345 237.039 295.345C236.514 295.345 235.988 295.135 235.594 294.715C234.885 293.927 234.937 292.693 235.726 291.984L246.549 282.242C246.759 283.791 246.969 285.367 247.153 286.89Z" fill="#084FC7"/>
<path d="M126.992 278.986C126.704 278.539 126.572 277.988 126.704 277.436C126.94 276.386 127.991 275.756 129.042 275.992L145.933 279.983C146.984 280.22 147.615 281.27 147.378 282.32C147.142 283.371 146.091 284.001 145.04 283.765L128.148 279.773C127.649 279.642 127.255 279.353 126.992 278.986Z" fill="#084FC7"/>
<path d="M66.7283 312.125C66.2029 312.125 65.6775 311.915 65.2834 311.495C64.5741 310.707 64.6266 309.473 65.4148 308.764L78.3135 297.157C79.1016 296.448 80.3363 296.501 81.0456 297.288C81.7549 298.076 81.7024 299.31 80.9143 300.019L68.0155 311.626C67.6477 311.941 67.1749 312.125 66.7283 312.125Z" fill="#084FC7"/>
<path d="M216.89 309.342C217.047 308.843 217.441 308.396 217.941 308.186C218.913 307.766 220.068 308.212 220.489 309.184L227.424 325.097C227.844 326.069 227.398 327.224 226.426 327.644C225.454 328.065 224.298 327.618 223.878 326.647L216.942 310.733C216.758 310.287 216.732 309.788 216.89 309.342Z" fill="#084FC7"/>
<path d="M249.491 335.26C249.176 336.205 248.808 337.072 248.414 337.886C248.256 338.201 248.099 338.516 247.941 338.805L238.51 335.838C238.037 335.68 237.67 335.365 237.433 334.971C237.17 334.525 237.065 333.947 237.249 333.422C237.564 332.398 238.668 331.846 239.666 332.161L249.491 335.26Z" fill="#084FC7"/>
<path d="M196.215 336.652C196.74 336.599 197.292 336.757 197.712 337.151C198.5 337.86 198.553 339.094 197.844 339.882L186.18 352.723C185.47 353.51 184.236 353.563 183.448 352.854C182.659 352.145 182.607 350.911 183.316 350.123L194.98 337.282C195.322 336.914 195.768 336.704 196.215 336.652Z" fill="#084FC7"/>
<path d="M189.358 307.031C188.833 306.952 188.36 306.637 188.045 306.164C187.467 305.271 187.756 304.063 188.649 303.486L203.36 294.269C204.254 293.691 205.462 293.98 206.04 294.873C206.618 295.765 206.329 296.973 205.436 297.551L190.724 306.768C190.278 307.031 189.805 307.11 189.358 307.031Z" fill="#084FC7"/>
<path d="M198.711 251.15C199.052 251.544 199.262 252.07 199.183 252.647C199.078 253.698 198.106 254.485 197.056 254.354L179.796 252.463C178.745 252.358 177.957 251.387 178.088 250.336C178.193 249.286 179.165 248.498 180.216 248.63L197.476 250.52C197.975 250.573 198.395 250.809 198.711 251.15Z" fill="#084FC7"/>
<path d="M173.622 213.731C173.754 213.205 174.095 212.759 174.594 212.496C175.54 211.997 176.722 212.339 177.221 213.284L185.444 228.567C185.943 229.513 185.602 230.694 184.656 231.193C183.71 231.692 182.528 231.351 182.029 230.405L173.806 215.122C173.57 214.676 173.517 214.177 173.622 213.731Z" fill="#084FC7"/>
<path d="M232.284 357.554C231.181 358.526 230.13 359.392 229.158 360.18L226.899 354.403C226.715 353.93 226.715 353.458 226.899 353.011C227.083 352.512 227.477 352.092 228.002 351.882C229 351.488 230.13 351.987 230.524 352.959L232.284 357.554Z" fill="#084FC7"/>
<path d="M73.6111 328.143C73.3484 327.671 73.2959 327.119 73.506 326.568C73.8738 325.57 74.9772 325.045 75.9754 325.412L92.3156 331.295C93.3139 331.662 93.8393 332.765 93.4715 333.763C93.1037 334.761 92.0004 335.286 91.0021 334.918L74.6619 329.036C74.1891 328.879 73.8475 328.564 73.6111 328.143Z" fill="#084FC7"/>
<path d="M81.6235 350.228C82.149 350.228 82.6743 350.464 83.0684 350.884C83.7777 351.672 83.6989 352.906 82.9108 353.615L69.907 365.117C69.1189 365.826 67.8841 365.747 67.1748 364.959C66.4655 364.171 66.5443 362.937 67.3325 362.228L80.3363 350.727C80.7041 350.359 81.1507 350.201 81.6235 350.228Z" fill="#084FC7"/>
<path d="M105.188 368.478C105.53 368.898 105.687 369.45 105.582 370.001C105.398 371.051 104.4 371.76 103.349 371.577L86.2471 368.662C85.1963 368.478 84.487 367.48 84.6709 366.43C84.8548 365.379 85.8531 364.67 86.9039 364.854L104.006 367.769C104.479 367.848 104.899 368.11 105.188 368.478Z" fill="#084FC7"/>
<path d="M119.479 206.037C119.348 205.538 119.4 204.96 119.716 204.487C120.294 203.594 121.502 203.332 122.395 203.91L136.975 213.31C137.868 213.888 138.131 215.096 137.553 215.989C136.975 216.882 135.767 217.144 134.874 216.567L120.294 207.166C119.899 206.877 119.611 206.483 119.479 206.037Z" fill="#084FC7"/>
<path d="M219.018 217.118C219.49 216.855 220.042 216.803 220.594 216.987C221.592 217.354 222.117 218.457 221.776 219.455L215.97 235.815C215.602 236.813 214.499 237.338 213.501 236.997C212.502 236.629 211.977 235.526 212.319 234.528L218.124 218.168C218.282 217.696 218.597 217.328 219.018 217.118Z" fill="#084FC7"/>
<path d="M211.215 195.795L202.257 207.297C201.6 208.137 200.392 208.295 199.551 207.638C198.711 206.982 198.553 205.774 199.21 204.934L207.406 194.43C208.72 194.876 209.981 195.349 211.215 195.795Z" fill="#084FC7"/>
<path d="M123.551 354.508C123.735 355.059 124.208 355.453 124.733 355.558C124.996 355.611 125.285 355.611 125.548 355.506C125.837 355.401 153.92 346.315 183.448 358.552C198.448 364.775 211.793 367.139 222.59 366.929C222.643 366.299 222.695 365.695 222.748 365.143C222.748 365.064 222.774 364.986 222.774 364.933C222.774 364.933 223.378 364.539 224.429 363.804C213.816 364.329 200.234 362.071 184.656 355.637C153.998 342.927 125.732 352.118 124.549 352.512C123.735 352.775 123.288 353.668 123.551 354.508Z" fill="#084FC7"/>
<path d="M191.092 189.204C187.388 194.929 179.77 201.415 164.323 200.312C143.017 198.763 128.989 178.438 124.103 170.087C124.759 170.061 125.127 170.061 125.127 170.061L191.092 189.204Z" fill="#084FC7"/>
<path d="M168.421 226.913C169.051 227.044 169.682 227.123 170.312 227.175C176.197 227.648 180.978 225.941 184.498 222.107C194.744 210.921 190.541 185.397 190.357 184.32C190.199 183.453 189.385 182.876 188.544 183.033C187.677 183.191 187.099 184.005 187.257 184.845C187.309 185.108 191.381 209.923 182.187 219.98C179.323 223.105 175.514 224.444 170.601 224.051C149.953 222.396 126.809 169.956 126.572 169.431C126.231 168.643 125.285 168.275 124.497 168.617C123.709 168.958 123.341 169.903 123.682 170.691C124.602 172.844 146.538 222.475 168.421 226.913Z" fill="white"/>
<path d="M232.731 206.299C231.365 221.425 235.095 246.397 244.868 264.359C244.631 260.499 244.526 256.586 244.579 252.7C244.579 252.568 244.579 252.437 244.579 252.306C244.579 251.912 244.605 251.518 244.605 251.124C244.973 228.173 247.206 216.567 232.731 206.299Z" fill="#EA9B7A"/>
<path d="M111.362 232.926C103.796 262.127 76.1068 285.55 57.1921 278.25C56.9557 276.622 56.7455 274.968 56.5091 273.34C56.3515 272.263 56.1938 271.213 56.0362 270.136C54.8278 262.206 53.4092 254.249 51.8067 246.529C44.7925 212.864 49.7313 177.545 83.8565 173.37C86.3259 173.054 88.7691 172.792 91.1597 172.529C108.183 179.803 120.057 199.314 111.362 232.926Z" fill="#EA9B7A"/>
<path d="M115.25 210.658L159.594 372.785L143.779 354.56C149.638 357.659 156.415 360.075 163.929 361.756C171.416 363.436 179.612 364.408 188.15 364.854C196.714 365.301 205.62 365.222 214.736 364.854C223.851 364.487 233.177 363.804 242.635 362.99H242.687C256.637 361.808 268.905 372.128 270.087 386.072C271.217 399.359 261.786 411.15 248.808 413.251C239.062 414.8 229.132 416.27 218.965 417.452C208.798 418.634 198.369 419.5 187.546 419.763C176.749 419.999 165.557 419.605 153.998 417.925C142.466 416.244 130.486 413.251 118.77 408.182C111.283 404.953 105.95 398.808 103.507 391.639L102.955 389.958L49.7839 230.51C43.7942 212.601 53.488 193.222 71.4044 187.235C89.3208 181.247 108.708 190.937 114.698 208.846C114.882 209.424 115.092 210.107 115.25 210.658Z" fill="#EA9B7A"/>
<path d="M135.11 367.585C134.663 367.585 134.217 367.349 133.98 366.929C133.613 366.298 133.849 365.511 134.48 365.143C134.9 364.907 144.594 359.418 154.734 358.657C155.47 358.604 156.1 359.13 156.153 359.865C156.205 360.6 155.68 361.23 154.944 361.283C145.408 362.018 135.872 367.375 135.793 367.428C135.557 367.533 135.32 367.585 135.11 367.585Z" fill="#D96C63"/>
<path d="M151.214 361.729C150.977 361.729 150.741 361.677 150.531 361.545C144.41 357.843 137.001 357.265 136.923 357.265C136.187 357.213 135.662 356.582 135.714 355.873C135.767 355.138 136.371 354.613 137.107 354.665C137.422 354.692 145.224 355.269 151.871 359.313C152.501 359.681 152.685 360.495 152.317 361.125C152.107 361.519 151.66 361.729 151.214 361.729Z" fill="#D96C63"/>
<path d="M190.777 276.281C210.401 280.246 218.991 259.974 219.07 259.764C219.412 258.95 219.018 258.03 218.203 257.715C217.389 257.374 216.469 257.768 216.154 258.582C215.839 259.343 208.431 276.648 191.407 273.208C173.517 269.585 140.154 234.423 139.839 234.055C139.234 233.425 138.236 233.399 137.606 234.003C136.975 234.607 136.949 235.605 137.553 236.235C138.919 237.679 171.915 272.473 190.777 276.281Z" fill="#084FC7"/>
<path d="M159.909 148.607C159.909 148.607 128.411 142.672 119.532 110.898C111.073 80.6471 117.588 64.9439 126.388 48.6105C133.008 36.2948 154.025 19.6725 183.474 25.6334C213.212 31.6468 235.463 46.9299 238.747 71.3775C244.894 117.122 207.958 172.923 159.909 148.607Z" fill="#39393B"/>
<path d="M121.029 115.782C120.451 115.782 119.899 115.494 119.611 114.942C119.033 113.944 105.792 90.1268 116.8 58.7729C123.682 39.1833 137.212 30.4389 147.378 26.5262C158.359 22.2984 167.58 22.7186 167.974 22.7186C168.867 22.7711 169.577 23.5326 169.524 24.4517C169.472 25.3445 168.736 26.0535 167.817 26.001C167.738 26.001 158.78 25.6334 148.429 29.6248C134.663 34.9555 125.075 45.118 119.899 59.8496C109.418 89.733 122.343 113.078 122.474 113.314C122.921 114.102 122.658 115.1 121.87 115.546C121.581 115.73 121.292 115.782 121.029 115.782Z" fill="#6380FF"/>
<path d="M221.014 116.307C221.014 116.307 231.26 108.22 233.965 118.933C236.671 129.647 229.053 148.685 217.126 142.908L221.014 116.307Z" fill="#D96C63"/>
<path d="M211.005 136.002C205.909 137.683 201.416 142.199 200.261 147.793C198.579 156.143 203.991 164.284 212.319 165.991C220.673 167.671 228.816 162.262 230.524 153.937C231.785 147.688 229.079 141.543 224.114 138.155C222.459 137 220.541 136.186 218.44 135.766C218.387 135.766 218.335 135.74 218.282 135.74C217.993 136.79 218.098 137.63 218.702 138.287C220.384 138.733 221.907 139.495 223.247 140.492C227.109 143.434 229.184 148.397 228.16 153.465C226.741 160.502 219.832 165.071 212.792 163.653C205.751 162.235 201.18 155.329 202.599 148.292C203.649 143.171 207.432 139.547 212.187 138.392L211.005 136.002Z" fill="#6380FF"/>
<path d="M189.963 162.209L185.68 189.047C185.68 189.047 165.584 209.555 128.884 172.766C138.735 165.439 142.492 148.423 141.336 137.447C141.336 137.447 144.226 139.18 148.692 143.224C149.559 144.011 150.688 144.615 151.765 145.377C161.459 151.968 176.328 160.529 189.963 162.209Z" fill="#EA9B7A"/>
<path d="M189.963 162.209L187.94 174.919C176.932 170.008 157.466 159.531 148.692 143.197C149.638 143.88 150.688 144.589 151.765 145.351C161.459 151.968 176.328 160.529 189.963 162.209Z" fill="#39393B"/>
<path d="M230.944 109.848C230.366 112.684 229.841 115.388 229.289 117.962C228.711 120.745 228.16 123.371 227.608 125.84C223.536 144.405 220.2 154.358 214.788 158.086C187.388 176.915 142.807 138.786 141.362 137.552C141.336 137.525 141.336 137.525 141.336 137.525C141.31 135.346 141.31 133.166 141.336 131.039C141.678 112.973 144.751 96.7442 149.638 81.75C152.081 65.364 164.796 52.2342 181.162 49.7658C198.133 47.2187 210.9 57.0397 218.886 61.3726C230.944 67.9112 235.647 86.1616 230.944 109.848Z" fill="#EA9B7A"/>
<path d="M150.557 64.8913C150.557 64.8913 169.734 28.0229 207.984 38.3167C246.234 48.6104 248.257 66.3619 248.94 75.2376C249.623 84.1133 229.132 68.3839 229.132 68.3839C229.132 68.3839 228.422 86.1353 221.592 80.6733C213.212 73.9509 203.86 59.4819 203.86 59.4819C203.86 59.4819 181.083 81.855 159.436 75.8153C147.142 72.4016 150.557 64.8913 150.557 64.8913Z" fill="#39393B"/>
<path d="M197.555 146.007C192.59 146.007 189.174 142.567 189.017 142.383C188.491 141.832 188.491 140.965 189.043 140.44C189.595 139.915 190.435 139.915 190.961 140.466C191.145 140.65 195.085 144.563 200.287 142.777C200.996 142.541 201.784 142.908 202.021 143.617C202.257 144.326 201.889 145.114 201.18 145.351C199.893 145.823 198.684 146.007 197.555 146.007Z" fill="#D96C63"/>
<path d="M186.101 123.687C186.101 123.687 204.543 129.149 214.105 129.149C214.105 129.149 209.324 142.803 195.663 138.024C185.024 134.295 186.101 123.687 186.101 123.687Z" fill="white"/>
<path d="M220.357 85.2951C220.357 85.2951 215.576 84.7962 216.338 89.4441C217.126 94.0921 227.503 91.256 232.652 100.552C232.626 100.552 237.591 90.8096 220.357 85.2951Z" fill="#39393B"/>
<path d="M199.052 80.9884C199.052 80.9884 203.649 82.4065 201.127 86.3717C198.606 90.3368 190.146 83.6932 181.792 90.2581C181.792 90.2581 181.004 79.3341 199.052 80.9884Z" fill="#39393B"/>
<path d="M190.724 114.259C190.278 116.439 185.392 117.305 179.822 116.176C174.253 115.047 170.102 112.369 170.549 110.163C170.995 107.983 175.855 107.117 181.451 108.246C187.02 109.375 191.171 112.053 190.724 114.259Z" fill="#D96C63"/>
<path d="M245.183 115.704L230.288 113.156C230.209 113.787 230.051 114.417 229.92 115.021C229.894 115.126 229.867 115.231 229.815 115.336L244.815 117.883C245.419 117.988 245.997 117.568 246.102 116.964C246.181 116.386 245.813 115.782 245.183 115.704Z" fill="white"/>
<path d="M205.41 102.994C205.41 102.232 205.383 101.471 205.278 100.736C204.779 96.6916 202.993 92.9628 200.261 90.0742C197.739 87.422 194.455 85.4788 190.646 84.6385C190.593 84.6122 190.514 84.6122 190.462 84.586C181.74 82.8003 173.15 87.3695 169.603 95.1423C169.288 95.8251 169.025 96.5078 168.789 97.2168C168.578 97.8471 168.421 98.5035 168.263 99.16C167.265 104.044 168.237 108.876 170.68 112.815C171.495 114.154 172.519 115.388 173.649 116.465C176.118 118.855 179.244 120.588 182.843 121.323C188.912 122.584 194.875 120.745 199.157 116.911C202.047 114.338 204.175 110.819 205.015 106.749C205.015 106.723 205.015 106.723 205.015 106.697C205.278 105.462 205.41 104.202 205.41 102.994ZM183.29 119.144C183.185 119.117 183.106 119.117 183.027 119.091C178.325 118.041 174.516 115.047 172.283 111.134C170.365 107.747 169.603 103.703 170.444 99.6065C170.628 98.7661 170.864 97.9521 171.153 97.1643C171.179 97.1118 171.206 97.0593 171.206 97.0068C173.544 90.9408 179.244 86.818 185.654 86.4504C187.073 86.3716 188.518 86.4504 189.989 86.7655C193.141 87.422 195.873 88.9188 198.054 90.9933C202.047 94.801 204.043 100.526 202.861 106.303C200.996 115.231 192.222 121.008 183.29 119.144Z" fill="white"/>
<path d="M238.773 95.2999C238.274 95.0373 237.748 94.8009 237.197 94.5646C236.566 94.302 235.909 94.0919 235.253 93.8818C234.78 93.7505 234.333 93.6192 233.834 93.5405C232.941 93.3566 232.074 93.2516 231.207 93.1991C230.156 93.1203 229.105 93.1466 228.081 93.2779C225.217 93.593 222.512 94.5383 220.121 96.0351C217.494 97.6632 215.261 99.9478 213.737 102.705C213.317 103.414 212.975 104.149 212.66 104.885C212.634 104.937 212.634 104.963 212.608 105.016C212.214 106.014 211.898 107.064 211.662 108.141C210.164 115.388 213.08 122.531 218.571 126.785C220.357 128.177 222.406 129.253 224.666 129.91C225.007 130.015 225.349 130.12 225.717 130.173C225.9 130.225 226.058 130.251 226.242 130.304C228.055 130.671 229.867 130.777 231.627 130.619C231.916 130.593 232.205 130.566 232.468 130.54C233.23 130.435 233.992 130.304 234.754 130.094C236.146 129.726 237.512 129.201 238.773 128.544C243.58 126.024 247.258 121.454 248.44 115.73C250.148 107.353 245.997 99.1075 238.773 95.2999ZM246.26 115.257C246.181 115.625 246.102 115.966 245.997 116.308C245.866 116.806 245.708 117.279 245.524 117.778C244.211 121.271 241.794 124.107 238.747 125.971C237.643 126.654 236.435 127.205 235.174 127.625C234.386 127.888 233.598 128.072 232.757 128.203C232.521 128.256 232.284 128.282 232.048 128.308C230.314 128.518 228.501 128.466 226.689 128.098C226.531 128.072 226.347 128.019 226.189 127.993C226.084 127.967 225.979 127.94 225.9 127.914C223.247 127.231 220.883 125.918 218.965 124.159C218.676 123.897 218.413 123.634 218.151 123.371C214.499 119.59 212.713 114.102 213.842 108.561C214.105 107.327 214.499 106.119 214.998 105.016C216.653 101.392 219.543 98.5823 223.037 96.928C225.191 95.9038 227.582 95.3524 230.051 95.3524C230.445 95.3524 230.839 95.3786 231.26 95.4049C231.969 95.4574 232.678 95.5625 233.387 95.6937C233.913 95.7988 234.412 95.9301 234.911 96.0876C235.594 96.2977 236.251 96.5603 236.908 96.8492C237.407 97.0855 237.906 97.3481 238.405 97.6107C244.342 101.129 247.731 108.141 246.26 115.257Z" fill="white"/>
<path d="M145.855 98.5034C145.723 98.4772 145.592 98.4247 145.487 98.3459C144.961 98.0045 144.83 97.3217 145.145 96.8228C152.606 85.1636 170.549 95.6411 170.706 95.7462C171.232 96.0613 171.416 96.744 171.1 97.2692C170.785 97.7944 170.102 97.9782 169.577 97.6631C169.419 97.5581 153.315 88.1834 147.011 98.0308C146.748 98.4247 146.275 98.6085 145.855 98.5034Z" fill="white"/>
<path d="M213.475 105.515C213.186 105.462 212.949 105.279 212.765 105.042C210.375 101.366 205.278 103.02 205.226 103.02C204.648 103.204 204.017 102.889 203.833 102.311C203.649 101.733 203.965 101.103 204.543 100.919C206.881 100.132 212.003 99.7377 214.657 103.834C214.998 104.359 214.841 105.042 214.315 105.357C214.052 105.541 213.737 105.594 213.475 105.515Z" fill="white"/>
<g opacity="0.8">
<path d="M229.289 117.962C228.711 120.745 228.16 123.371 227.608 125.84C222.538 124.606 218.886 122.111 219.307 120.036C219.727 117.962 224.114 117.095 229.289 117.962Z" fill="#D96C63"/>
</g>
<path d="M194.639 103.257C194.034 106.276 192.169 108.43 190.488 108.088C188.807 107.747 187.94 105.042 188.544 102.022C189.148 99.0025 191.013 96.8492 192.695 97.1906C194.376 97.532 195.269 100.237 194.639 103.257Z" fill="#39393B"/>
<path d="M224.429 109.296C223.825 112.316 221.96 114.469 220.279 114.128C218.597 113.787 217.73 111.082 218.335 108.062C218.939 105.042 220.804 102.889 222.485 103.23C224.167 103.546 225.06 106.277 224.429 109.296Z" fill="#39393B"/>
<path d="M209.061 117.358C210.506 117.647 211.531 117.594 211.609 117.594C211.951 117.568 212.292 117.411 212.529 117.148C212.765 116.885 212.844 116.518 212.818 116.176L210.9 102.127C210.795 101.445 210.164 100.946 209.481 101.051C208.798 101.156 208.299 101.786 208.404 102.469L210.112 114.995C208.851 114.811 206.959 114.286 205.252 112.868C204.727 112.421 203.912 112.5 203.466 113.025C203.019 113.55 203.098 114.364 203.623 114.811C205.488 116.36 207.511 117.043 209.061 117.358Z" fill="#39393B"/>
<path d="M153.631 127.31C153.42 127.625 147.588 136.002 141.362 137.525C141.336 137.499 141.336 137.499 141.336 137.499C141.284 135.319 141.31 133.14 141.336 131.013C141.546 131.039 147.51 131.197 153.631 127.31Z" fill="#39393B"/>
<path d="M152.37 105.305C152.37 105.305 143.595 86.7131 132.22 97.6109C122.842 106.618 131.038 136.659 147.326 130.225L152.37 105.305Z" fill="#EA9B7A"/>
<path d="M130.802 121.323C125.705 123.004 121.213 127.52 120.057 133.114C118.376 141.464 123.788 149.605 132.115 151.312C140.469 152.992 148.613 147.583 150.321 139.258C151.582 133.009 148.876 126.864 143.911 123.476C142.256 122.321 140.338 121.507 138.236 121.087C138.184 121.087 138.131 121.061 138.079 121.061C137.79 122.111 137.921 122.951 138.499 123.608C140.18 124.054 141.704 124.816 143.044 125.814C146.905 128.755 148.981 133.718 147.956 138.786C146.538 145.823 139.629 150.392 132.588 148.974C125.548 147.556 120.977 140.65 122.395 133.613C123.42 128.492 127.229 124.868 131.984 123.713L130.802 121.323Z" fill="#6380FF"/>
<path d="M146.643 125.026C146.695 125.026 146.722 125.052 146.774 125.052C147.457 125.105 148.088 124.606 148.14 123.897C149.427 109.848 138.814 102.731 138.368 102.443C137.79 102.049 137.001 102.232 136.607 102.81C136.213 103.388 136.397 104.176 136.975 104.57C137.369 104.832 146.774 111.187 145.618 123.687C145.566 124.317 146.012 124.894 146.643 125.026Z" fill="#39393B"/>
<path d="M136.607 115.178C136.87 115.231 137.185 115.205 137.448 115.047C138.709 114.391 142.413 112.92 144.436 113.892C145.066 114.207 145.828 113.944 146.117 113.314C146.433 112.684 146.17 111.922 145.539 111.633C142.019 109.926 136.87 112.526 136.292 112.815C135.662 113.13 135.425 113.892 135.767 114.522C135.924 114.889 136.24 115.1 136.607 115.178Z" fill="#39393B"/>
<path d="M163.666 73.7408C163.666 73.7408 151.871 105.751 151.24 112.211C150.373 121.008 138.735 90.862 150.426 65.1277L163.666 73.7408Z" fill="#39393B"/>
<path d="M360.72 752.419H312.146C312.146 752.419 300.902 698.535 297.146 668.336C293.363 638.111 291.419 566.502 291.419 566.502C291.419 566.502 252.722 579.08 171.705 574.327C-7.80078 563.849 60.2657 432.026 60.2657 432.026C66.3342 440.403 111.834 451.931 137.212 455.949C215.156 463.433 274.396 476.668 314.957 494.156C324.73 498.358 333.399 502.822 341.017 507.523C350.79 513.536 356.911 531.839 360.615 555.866C371.675 628.08 360.72 752.419 360.72 752.419Z" fill="#39393B"/>
<path d="M318.188 726.448C317.374 726.448 316.665 725.871 316.481 725.057C309.466 690.394 307.128 647.25 305.237 612.587C303.661 583.833 302.19 556.68 298.485 553.424C295.491 550.772 283.065 552.846 267.355 555.446C236.067 560.646 188.78 568.471 136.66 556.365C108.262 549.748 87.3768 535.962 74.6094 515.374C52.5686 479.871 62.6301 435.834 62.7352 435.387C62.9453 434.442 63.8911 433.864 64.8368 434.101C65.7825 434.311 66.3605 435.256 66.1241 436.202C66.019 436.622 56.3252 479.293 77.6042 513.562C89.8725 533.336 110.022 546.597 137.474 552.978C188.938 564.952 235.804 557.179 266.83 552.032C285.403 548.96 296.62 547.096 300.85 550.824C305.421 554.868 306.708 574.721 308.757 612.403C310.649 646.961 312.987 689.948 319.948 724.374C320.132 725.319 319.528 726.238 318.582 726.422C318.425 726.448 318.293 726.448 318.188 726.448Z" fill="#585859"/>
<path d="M361.666 727.368H361.639L307.628 726.212C306.656 726.186 305.894 725.398 305.92 724.427C305.946 723.455 306.734 722.693 307.706 722.72L361.718 723.875C362.69 723.901 363.452 724.689 363.426 725.661C363.373 726.606 362.585 727.368 361.666 727.368Z" fill="#585859"/>
<path d="M359.38 814.602H325.124L318.503 774.424L314.904 752.419H357.489L358.145 774.424L359.38 814.602Z" fill="#EA9B7A"/>
<path d="M359.38 814.602H325.124L320.185 784.692L318.503 774.425H358.145L358.487 785.06L359.38 814.602Z" fill="#6380FF"/>
<path d="M358.487 785.06L320.185 784.692L318.503 774.425H358.145L358.487 785.06Z" fill="#C77E2E"/>
<path d="M443.971 868.722H314.326C313.354 866.963 312.829 864.495 312.619 861.527C311.804 850.551 315.298 833.062 317.006 822.033C317.216 820.746 317.4 819.538 317.531 818.462C317.768 816.624 317.926 815.074 317.926 813.945C317.926 804.938 325.885 806.487 325.885 806.487C338.994 819.355 353.863 800.08 362.533 806.382C362.533 806.382 362.874 806.645 363.688 807.249C364.424 807.827 365.527 808.719 367.051 810.006C369.258 811.844 372.358 814.523 376.561 818.304C386.859 827.574 404.355 833.666 419.25 839.889C421.142 840.677 422.902 841.465 424.557 842.279C425.792 842.883 426.974 843.487 428.077 844.065C440.267 850.63 444.128 856.932 445.022 861.501C445.888 865.913 443.971 868.722 443.971 868.722Z" fill="#0875F7"/>
<path d="M428.103 844.117C424.767 846.769 417.333 852.1 411.369 852.1C411.106 852.1 410.844 852.1 410.581 852.074C406.378 851.732 390.931 844.143 378.347 837.237C371.149 833.272 364.555 829.386 359.827 826.261C352.077 821.14 350.711 819.197 350.422 817.831C349.292 812.711 357.751 809.166 363.688 807.301C364.424 807.879 365.527 808.772 367.051 810.059C359.695 812.054 353.627 815.205 353.916 816.991C354.651 818.514 362.322 824.344 380.659 834.401C394.661 842.069 407.928 848.24 410.87 848.503C414.863 848.818 420.721 845.194 424.557 842.332C425.818 842.909 427 843.513 428.103 844.117Z" fill="#084FC7"/>
<path d="M443.971 868.723H314.326C313.354 866.963 312.829 864.495 312.619 861.527H445.048C445.888 865.913 443.971 868.723 443.971 868.723Z" fill="#084FC7"/>
<path d="M327.567 868.722H323.705C327.54 864.337 331.139 857.588 330.667 847.977C330.036 835.163 322.365 826.55 317.006 822.033C317.216 820.746 317.4 819.538 317.531 818.462C323.285 822.847 332.978 832.484 333.74 847.82C334.213 857.011 331.192 863.864 327.567 868.722Z" fill="#084FC7"/>
<path d="M374.38 825.972C373.435 825.972 372.542 825.315 372.305 824.344C372.016 823.188 372.725 822.033 373.855 821.744L381.946 819.722C383.102 819.433 384.258 820.142 384.547 821.271C384.836 822.427 384.127 823.582 382.997 823.871L374.906 825.893C374.722 825.946 374.564 825.972 374.38 825.972Z" fill="white"/>
<path d="M366.342 819.249C365.37 819.249 364.503 818.593 364.266 817.621C363.977 816.466 364.687 815.31 365.816 815.022L373.908 813C375.064 812.711 376.219 813.42 376.508 814.549C376.797 815.704 376.088 816.86 374.958 817.149L366.867 819.171C366.683 819.223 366.499 819.249 366.342 819.249Z" fill="white"/>
<path d="M382.472 830.672C381.526 830.672 380.633 830.016 380.396 829.044C380.107 827.889 380.817 826.733 381.946 826.471L390.038 824.449C391.194 824.16 392.349 824.869 392.638 825.998C392.927 827.154 392.218 828.309 391.088 828.598L382.997 830.62C382.84 830.672 382.656 830.672 382.472 830.672Z" fill="white"/>
<path d="M390.589 835.215C389.644 835.215 388.75 834.559 388.514 833.587C388.225 832.432 388.934 831.276 390.064 831.014L398.155 828.992C399.311 828.703 400.467 829.412 400.756 830.541C401.045 831.697 400.336 832.852 399.206 833.141L391.115 835.163C390.931 835.189 390.747 835.215 390.589 835.215Z" fill="white"/>
<path d="M399.416 839.391C398.47 839.391 397.577 838.734 397.341 837.763C397.052 836.607 397.761 835.452 398.891 835.189L406.982 833.167C408.138 832.878 409.294 833.587 409.583 834.716C409.872 835.872 409.162 837.027 408.033 837.316L399.942 839.338C399.758 839.364 399.574 839.391 399.416 839.391Z" fill="white"/>
<path d="M408.979 842.962C408.007 842.962 407.14 842.305 406.903 841.334C406.614 840.178 407.324 839.023 408.453 838.734L416.544 836.712C417.7 836.423 418.856 837.132 419.145 838.261C419.434 839.417 418.725 840.572 417.595 840.861L409.504 842.883C409.32 842.936 409.162 842.962 408.979 842.962Z" fill="white"/>
</svg>
