<svg width="48" height="95" viewBox="0 0 48 95" fill="none" xmlns="http://www.w3.org/2000/svg">
<path d="M11.2394 11.665L0.981949 13.2354L12.8384 90.6149L23.0958 89.0445L11.2394 11.665Z" fill="#6380FF"/>
<path d="M11.2483 11.6425L0.976593 13.2181L3.23585 5.36648L4.41801 1.32251L6.75608 4.84128L11.2483 11.6425Z" fill="#EA9B7A"/>
<path d="M22.2244 83.4115L11.967 84.9819L12.8301 90.6147L23.0875 89.0443L22.2244 83.4115Z" fill="#39393B"/>
<path d="M23.0963 93.5986L14.1906 94.9641C13.8228 95.0166 13.455 94.754 13.4025 94.3864L12.8245 90.5788L23.0963 89.0032L23.6742 92.8108C23.753 93.1784 23.4903 93.5461 23.0963 93.5986Z" fill="#DF615C"/>
<path d="M6.75607 4.84128L3.23584 5.36648L4.41801 1.32251L6.75607 4.84128Z" fill="#39393B"/>
<path d="M21.6291 79.3759L11.3716 80.9463L11.9881 84.9697L22.2456 83.3993L21.6291 79.3759Z" fill="#C77E2E"/>
<path d="M4.12904 16.6318L12.9033 73.9301C12.9822 74.3502 13.3762 74.6653 13.7965 74.5866C14.2169 74.5078 14.5321 74.1139 14.4533 73.6938L5.67899 16.3954C5.60018 15.9753 5.20613 15.6602 4.7858 15.7389C4.3392 15.7914 4.05023 16.1854 4.12904 16.6318Z" fill="#C77E2E"/>
<path d="M8.12213 16.0016L16.8964 73.3C16.9752 73.7201 17.3693 74.0352 17.7896 73.9565C18.2362 73.8777 18.5252 73.4838 18.4464 73.0636L9.67208 15.7653C9.59327 15.3451 9.19921 15.03 8.77889 15.1088C8.35856 15.1876 8.06959 15.5815 8.12213 16.0016Z" fill="#C77E2E"/>
<path d="M29.7984 11.995L19.4216 12.0291L19.6792 90.3088L30.056 90.2747L29.7984 11.995Z" fill="#21B573"/>
<path d="M29.8215 11.9838L19.4184 12.0363L22.8335 4.60489L24.5937 0.770996L26.3538 4.60489L29.8215 11.9838Z" fill="#EA9B7A"/>
<path d="M30.0493 84.5765L19.6725 84.6106L19.6912 90.309L30.068 90.2749L30.0493 84.5765Z" fill="#39393B"/>
<path d="M29.4011 94.8064L20.3904 94.8327C19.9963 94.8327 19.7074 94.5176 19.7074 94.15V90.316L30.0842 90.2898V94.1237C30.0842 94.4913 29.7689 94.8064 29.4011 94.8064Z" fill="#DF615C"/>
<path d="M26.3538 4.60489H22.8335L24.5937 0.770996L26.3538 4.60489Z" fill="#39393B"/>
<path d="M30.0257 80.5062L19.6489 80.5403L19.6623 84.6105L30.0391 84.5764L30.0257 80.5062Z" fill="#217C58"/>
<path d="M22.0192 15.8703L22.2031 73.8251C22.2031 74.2716 22.5708 74.6129 22.9912 74.6129C23.4378 74.6129 23.7793 74.2453 23.7793 73.8251L23.5954 15.8703C23.5954 15.4239 23.2276 15.0825 22.8073 15.0825C22.3607 15.0825 22.0192 15.4502 22.0192 15.8703Z" fill="#217C58"/>
<path d="M26.0911 15.8702L26.275 73.825C26.275 74.2714 26.6427 74.6128 27.0631 74.6128C27.5097 74.6128 27.8512 74.2452 27.8512 73.825L27.6673 15.8702C27.6673 15.4238 27.2995 15.0824 26.8792 15.0824C26.4326 15.0561 26.0911 15.4238 26.0911 15.8702Z" fill="#217C58"/>
<path d="M37.4439 11.6071L26.4333 89.1118L36.7073 90.5702L47.718 13.0654L37.4439 11.6071Z" fill="#0875F7"/>
<path d="M47.7378 13.0867L37.4399 11.6424L41.8796 4.78869L44.1651 1.24365L45.3998 5.28763L47.7378 13.0867Z" fill="#EA9B7A"/>
<path d="M37.5249 84.9633L27.2509 83.5049L26.4494 89.1468L36.7234 90.6052L37.5249 84.9633Z" fill="#39393B"/>
<path d="M35.3908 94.9901L26.4851 93.7297C26.1173 93.6772 25.8546 93.3358 25.9072 92.9419L26.4589 89.1343L36.7306 90.6048L36.1789 94.4124C36.1263 94.7801 35.7848 95.0427 35.3908 94.9901Z" fill="#DF615C"/>
<path d="M45.3998 5.28763L41.8795 4.78869L44.1651 1.24365L45.3998 5.28763Z" fill="#39393B"/>
<path d="M27.8347 79.4554L27.2617 83.4854L37.5358 84.9448L38.1087 80.9148L27.8347 79.4554Z" fill="#084FC7"/>
<path d="M39.4627 15.8176L31.3189 73.1947C31.2663 73.6411 31.5553 74.035 32.0019 74.0875C32.4485 74.1401 32.8425 73.8512 32.8951 73.4048L41.0389 16.0277C41.0914 15.5813 40.8025 15.1874 40.3559 15.1349C39.9355 15.0824 39.5152 15.3975 39.4627 15.8176Z" fill="#084FC7"/>
<path d="M43.4821 16.3954L35.3382 73.7726C35.2857 74.219 35.5747 74.6129 36.0213 74.6654C36.4679 74.7179 36.8619 74.4291 36.9145 73.9826L45.0583 16.6055C45.1108 16.1591 44.8218 15.7652 44.3752 15.7127C43.9549 15.6602 43.5346 15.949 43.4821 16.3954Z" fill="#084FC7"/>
</svg>
