<svg width="40" height="40" viewBox="0 0 40 40" fill="none" xmlns="http://www.w3.org/2000/svg">
<path d="M30.8235 5.0291C29.0973 3.70453 27.1596 2.68601 25.0948 2.01521C24.6581 1.87331 24.4397 1.80236 24.2509 1.90486C24.0621 2.00736 24.0005 2.23729 23.8773 2.69716L19.4489 19.2242C19.3269 19.6795 19.2659 19.9072 19.3694 20.0865C19.473 20.2659 19.7007 20.3269 20.156 20.4489L36.683 24.8773C37.1429 25.0005 37.3728 25.0621 37.556 24.9499C37.7391 24.8377 37.7869 24.613 37.8824 24.1638C38.3338 22.0403 38.4206 19.8529 38.1366 17.6957C37.809 15.2076 36.9946 12.8084 35.7398 10.6351C34.485 8.46173 32.8145 6.55682 30.8235 5.0291Z" stroke="#2F2B6D" stroke-width="3"/>
<path d="M18.254 10.3663C15.6906 10.0301 13.0847 10.4439 10.7515 11.5578C8.41837 12.6716 6.45799 14.4377 5.10754 16.6423C3.75709 18.847 3.07445 21.3957 3.1422 23.9802C3.20994 26.5647 4.02518 29.0742 5.48927 31.2051C6.95337 33.3359 9.00358 34.9969 11.3919 35.9869C13.7802 36.977 16.4042 37.2538 18.9465 36.7838C21.4888 36.3138 23.8404 35.1171 25.7168 33.3386C27.5933 31.5601 28.9141 29.2759 29.5196 26.7624" stroke="#2F2B6D" stroke-width="3"/>
</svg>
