<svg width="626" height="455" viewBox="0 0 626 455" fill="none" xmlns="http://www.w3.org/2000/svg">
<path d="M599.621 12.0568V22.8232C599.621 29.0205 595.891 34.0361 591.267 34.0361H9.45734C4.83376 34.0361 1.10336 29.0205 1.10336 22.8232V12.0568C1.10336 5.85958 4.83376 0.843994 9.45734 0.843994H591.241C595.891 0.870254 599.621 5.88584 599.621 12.0568Z" fill="#21B573"/>
<path d="M599.621 15.4707H1.10336V20.4075H599.621V15.4707Z" fill="#217C58"/>
<path d="M582.151 61.6873H35.2548C32.8117 61.6873 30.8151 59.6915 30.8151 57.2494V33.8784H586.565V57.2494C586.565 59.7178 584.594 61.6873 582.151 61.6873Z" fill="#217C58"/>
<path d="M557.589 198.894H68.5131V217.958H557.589V198.894Z" fill="#217C58"/>
<path d="M33.2583 454.11L127.937 61.6875H94.6784L0 454.11H33.2583Z" fill="#21B573"/>
<path d="M592.187 454.11L497.508 61.6875H530.766L625.445 454.11H592.187Z" fill="#21B573"/>
</svg>
