<svg width="1595" height="559" viewBox="0 0 1595 559" fill="none" xmlns="http://www.w3.org/2000/svg">
<path d="M39.8036 0.0532227L46.4978 42.5612L79.2497 51.2495L46.4978 59.9378L39.8036 102.446L33.1093 59.9378L0.357422 51.2495L33.1093 42.5612L39.8036 0.0532227Z" fill="#162359"/>
<path d="M110.477 456.554L117.172 499.062L149.924 507.75L117.172 516.438L110.477 558.946L103.783 516.438L71.0312 507.75L103.783 499.062L110.477 456.554Z" fill="#162359"/>
<path d="M1555.19 558.946L1548.5 516.438L1515.75 507.75L1548.5 499.062L1555.19 456.554L1561.89 499.062L1594.64 507.75L1561.89 516.438L1555.19 558.946Z" fill="#162359"/>
<path d="M1484.52 102.446L1477.83 59.9378L1445.07 51.2495L1477.83 42.5612L1484.52 0.0532684L1491.21 42.5612L1523.97 51.2495L1491.21 59.9378L1484.52 102.446Z" fill="#162359"/>
</svg>
