<svg width="75" height="22" viewBox="0 0 75 22" fill="none" xmlns="http://www.w3.org/2000/svg">
<path d="M73.5053 10.8638L74.2113 10.1556L74.9173 10.8638L74.2113 11.572L73.5053 10.8638ZM51.8445 11.8653C51.2931 11.8653 50.8461 11.4169 50.8461 10.8638C50.8461 10.3106 51.2931 9.86223 51.8445 9.86223L51.8445 11.8653ZM63.774 19.2088L72.7993 10.1556L74.2113 11.572L65.186 20.6252L63.774 19.2088ZM72.7993 11.572L63.774 2.5187L65.186 1.1023L74.2113 10.1556L72.7993 11.572ZM73.5053 11.8653L51.8445 11.8653L51.8445 9.86223L73.5053 9.86223L73.5053 11.8653Z" fill="white"/>
<path d="M2.00012 10.8643L1.29411 11.5725L0.588096 10.8643L1.29411 10.1561L2.00012 10.8643ZM23.6609 9.86271C24.2123 9.86271 24.6594 10.3111 24.6594 10.8643C24.6594 11.4174 24.2123 11.8658 23.6609 11.8658V9.86271ZM11.7315 2.51919L2.70614 11.5725L1.29411 10.1561L10.3194 1.10279L11.7315 2.51919ZM2.70614 10.1561L11.7315 19.2093L10.3194 20.6257L1.29411 11.5725L2.70614 10.1561ZM2.00012 9.86271L23.6609 9.86271V11.8658L2.00012 11.8658V9.86271Z" fill="white"/>
</svg>
