<svg width="194" height="204" viewBox="0 0 194 204" fill="none" xmlns="http://www.w3.org/2000/svg">
<path d="M58.8642 22.6176L97.2977 163.106L83.5846 147.324C88.6548 150.029 94.5393 152.103 101.028 153.548C107.517 155.018 114.61 155.859 122.018 156.226C129.426 156.62 137.15 156.541 145.057 156.226C152.965 155.885 161.03 155.307 169.226 154.598H169.279C181.363 153.574 192.002 162.529 193.027 174.608C193.999 186.136 185.829 196.325 174.611 198.163C166.152 199.502 157.562 200.789 148.761 201.813C139.935 202.837 130.898 203.598 121.545 203.809C112.193 204.019 102.499 203.651 92.4639 202.207C82.4549 200.762 72.0781 198.136 61.9378 193.777C55.449 190.968 50.8254 185.663 48.7238 179.44L48.2246 177.969L2.12015 39.8176C-3.05512 24.2982 5.32513 7.49211 20.8772 2.31898C36.403 -2.85415 53.216 5.52264 58.3913 21.0683C58.5752 21.541 58.7328 22.1187 58.8642 22.6176Z" fill="#EA9B7A"/>
</svg>
