<svg width="275" height="384" viewBox="0 0 275 384" fill="none" xmlns="http://www.w3.org/2000/svg">
<path d="M134.924 100.96L151.823 162.731L145.793 155.792C148.023 156.981 150.61 157.893 153.463 158.528C156.316 159.175 159.435 159.544 162.692 159.706C165.949 159.879 169.345 159.844 172.822 159.706C176.299 159.556 179.845 159.302 183.449 158.99H183.472C188.785 158.54 193.463 162.477 193.914 167.788C194.341 172.857 190.749 177.337 185.817 178.145C182.097 178.734 178.32 179.299 174.451 179.75C170.57 180.2 166.596 180.535 162.484 180.627C158.372 180.72 154.11 180.558 149.698 179.923C145.297 179.288 140.734 178.133 136.276 176.217C133.423 174.981 131.39 172.649 130.466 169.912L130.246 169.266L109.975 108.522C107.699 101.699 111.384 94.3094 118.222 92.0348C125.048 89.7602 132.441 93.4434 134.716 100.279C134.797 100.486 134.866 100.74 134.924 100.96Z" fill="#EA9B7A"/>
<path d="M141.439 324.871C141.185 324.871 140.931 324.825 140.676 324.733L52.1516 292.831C50.9965 292.415 50.3844 291.134 50.8117 289.979C51.2276 288.825 52.5097 288.213 53.6648 288.64L142.19 320.541C143.345 320.957 143.957 322.239 143.53 323.393C143.206 324.305 142.351 324.871 141.439 324.871Z" fill="#C77E2E"/>
<path d="M49.2293 324.871C48.3167 324.871 47.462 324.305 47.127 323.393C46.7112 322.239 47.3118 320.957 48.4669 320.53L138.043 288.097C139.198 287.681 140.48 288.282 140.907 289.436C141.323 290.591 140.723 291.873 139.568 292.3L49.9916 324.733C49.7375 324.836 49.4834 324.871 49.2293 324.871Z" fill="#C77E2E"/>
<path d="M149.305 381.897C147.422 381.897 145.782 380.5 145.516 378.583L129.53 259.232H62.6282L46.8845 378.572C46.6073 380.661 44.6899 382.139 42.5992 381.862C40.5085 381.585 39.03 379.668 39.3072 377.579L55.4898 254.926C55.7439 253.02 57.361 251.6 59.2784 251.6H132.891C134.809 251.6 136.426 253.02 136.68 254.914L153.117 377.567C153.394 379.657 151.927 381.585 149.836 381.862C149.651 381.885 149.478 381.897 149.305 381.897Z" fill="#FAAF3A"/>
<path d="M111.557 255.422H63.7601C48.6171 255.422 32.3998 247.132 30.0666 232.18C26.9594 212.171 26.1855 192.808 27.0518 175.027C28.0336 154.926 37.6439 136.221 53.4453 123.752C53.4453 123.752 62.9977 165.352 50.985 222.77C55.5822 244.569 111.557 255.422 111.557 255.422Z" fill="#FAAF3A"/>
<path d="M101.6 11.4324C101.6 11.4324 95.9173 -2.26118 80.8667 0.325117C70.3555 2.12629 65.8738 15.2194 66.486 35.448C67.387 64.8787 57.4302 82.6133 57.4302 82.6133L70.6443 85.6153C70.6558 85.6153 104.303 35.1593 101.6 11.4324Z" fill="#39393B"/>
<path d="M222.167 330.759H200.81C200.81 330.759 195.866 307.067 194.214 293.789C192.551 280.5 191.696 249.014 191.696 249.014C191.696 249.014 174.682 254.544 139.059 252.455C60.1332 247.848 90.0611 189.887 90.0611 189.887C92.7293 193.57 109.062 191.018 120.232 192.773C154.503 196.064 184.211 209.504 202.046 217.193C206.342 219.041 210.154 221.003 213.504 223.07C217.801 225.714 220.492 233.762 222.121 244.326C226.984 276.089 222.167 330.759 222.167 330.759Z" fill="#39393B"/>
<path d="M203.455 319.341C203.097 319.341 202.785 319.087 202.704 318.729C199.62 303.488 198.592 284.518 197.76 269.277C197.067 256.634 196.42 244.696 194.792 243.264C193.475 242.098 188.011 243.01 181.104 244.153C167.347 246.439 146.556 249.88 123.639 244.557C111.153 241.648 101.97 235.586 96.3564 226.534C86.6653 210.924 91.0892 191.561 91.1354 191.365C91.2278 190.949 91.6437 190.695 92.0595 190.799C92.4753 190.892 92.7294 191.307 92.6255 191.723C92.5793 191.908 88.3171 210.67 97.6731 225.737C103.067 234.431 111.927 240.262 123.997 243.068C146.625 248.333 167.232 244.915 180.873 242.652C189.039 241.301 193.972 240.482 195.831 242.121C197.841 243.899 198.407 252.628 199.308 269.196C200.14 284.391 201.168 303.292 204.229 318.428C204.31 318.844 204.044 319.248 203.628 319.329C203.559 319.329 203.513 319.341 203.455 319.341Z" fill="#585859"/>
<path d="M222.571 319.745H222.56L198.811 319.237C198.384 319.225 198.049 318.879 198.061 318.451C198.072 318.024 198.419 317.689 198.846 317.701L222.594 318.209C223.022 318.221 223.357 318.567 223.345 318.994C223.322 319.41 222.987 319.745 222.571 319.745Z" fill="#585859"/>
<path d="M221.578 358.1H206.504L203.605 340.424L202.011 330.76H220.735L221.035 340.424L221.578 358.1Z" fill="#EA9B7A"/>
<path d="M221.578 358.1H206.504L204.344 344.938L203.605 340.423H221.035L221.174 345.111L221.578 358.1Z" fill="#FAAF3A"/>
<path d="M221.174 345.111L204.344 344.938L203.605 340.423H221.035L221.174 345.111Z" fill="#C77E2E"/>
<path d="M258.771 381.897H201.768C201.341 381.123 201.11 380.038 201.018 378.733C200.659 373.907 202.196 366.217 202.947 361.368C203.039 360.802 203.12 360.271 203.178 359.798C203.281 358.989 203.351 358.308 203.351 357.812C203.351 353.852 206.851 354.533 206.851 354.533C212.614 360.19 219.152 351.704 222.964 354.487C222.964 354.487 223.114 354.602 223.472 354.868C223.796 355.122 224.281 355.514 224.951 356.08C225.921 356.888 227.284 358.066 229.132 359.728C233.66 363.804 241.353 366.483 247.902 369.219C248.734 369.566 249.508 369.924 250.235 370.27C250.778 370.535 251.298 370.801 251.783 371.055C257.143 373.942 258.841 376.713 259.233 378.722C259.603 380.661 258.771 381.897 258.771 381.897Z" fill="#0875F7"/>
<path d="M251.783 371.066C250.316 372.233 247.047 374.576 244.425 374.576C244.31 374.576 244.194 374.576 244.079 374.565C242.231 374.415 235.439 371.078 229.906 368.041C226.741 366.298 223.842 364.589 221.763 363.215C218.355 360.964 217.755 360.109 217.627 359.509C217.131 357.257 220.85 355.699 223.461 354.879C223.784 355.133 224.269 355.526 224.939 356.091C221.705 356.969 219.037 358.354 219.164 359.151C219.487 359.821 222.86 362.384 230.922 366.806C237.079 370.177 242.912 372.891 244.206 373.006C245.961 373.145 248.537 371.551 250.224 370.293C250.79 370.535 251.298 370.801 251.783 371.066Z" fill="#084FC7"/>
<path d="M258.771 381.897H201.768C201.341 381.123 201.11 380.038 201.018 378.733H259.245C259.603 380.661 258.771 381.897 258.771 381.897Z" fill="#084FC7"/>
<path d="M207.578 381.897H205.88C207.567 379.968 209.149 377.001 208.941 372.775C208.664 367.141 205.291 363.354 202.935 361.368C203.027 360.802 203.108 360.271 203.166 359.798C205.696 361.726 209.958 365.963 210.293 372.706C210.501 376.747 209.172 379.761 207.578 381.897Z" fill="#084FC7"/>
<path d="M228.162 363.1C227.746 363.1 227.353 362.811 227.249 362.384C227.122 361.876 227.434 361.368 227.931 361.241L231.488 360.352C231.997 360.225 232.505 360.537 232.632 361.033C232.759 361.541 232.447 362.049 231.95 362.176L228.393 363.065C228.323 363.088 228.243 363.1 228.162 363.1Z" fill="white"/>
<path d="M224.627 360.133C224.211 360.133 223.819 359.844 223.715 359.417C223.588 358.909 223.9 358.401 224.396 358.274L227.954 357.385C228.462 357.258 228.97 357.569 229.097 358.066C229.224 358.574 228.913 359.082 228.416 359.197L224.858 360.086C224.777 360.121 224.708 360.133 224.627 360.133Z" fill="white"/>
<path d="M231.731 365.166C231.315 365.166 230.922 364.878 230.818 364.451C230.691 363.943 231.003 363.435 231.5 363.319L235.058 362.43C235.566 362.303 236.074 362.615 236.201 363.111C236.328 363.619 236.016 364.127 235.52 364.254L231.962 365.143C231.881 365.155 231.8 365.166 231.731 365.166Z" fill="white"/>
<path d="M235.289 367.152C234.873 367.152 234.48 366.864 234.376 366.436C234.249 365.928 234.561 365.42 235.058 365.293L238.615 364.404C239.123 364.277 239.632 364.589 239.759 365.086C239.886 365.594 239.574 366.102 239.077 366.217L235.52 367.106C235.439 367.152 235.369 367.152 235.289 367.152Z" fill="white"/>
<path d="M239.17 369C238.754 369 238.361 368.711 238.257 368.284C238.13 367.776 238.442 367.268 238.939 367.152L242.496 366.263C243.004 366.136 243.513 366.448 243.64 366.944C243.767 367.452 243.455 367.961 242.958 368.088L239.401 368.977C239.32 368.988 239.25 369 239.17 369Z" fill="white"/>
<path d="M243.386 370.57C242.97 370.57 242.577 370.281 242.473 369.854C242.346 369.346 242.658 368.838 243.155 368.711L246.712 367.822C247.22 367.695 247.729 368.007 247.856 368.503C247.983 369.011 247.671 369.519 247.174 369.635L243.617 370.524C243.536 370.558 243.455 370.57 243.386 370.57Z" fill="white"/>
<path d="M50.5345 171.494C50.5345 171.494 49.8645 176.101 56.0326 177.394L120.347 179.542C120.347 179.542 124.69 177.36 123.905 171.979C123.893 171.968 96.7374 156.727 50.5345 171.494Z" fill="#084FC7"/>
<path d="M121.214 192.762C87.8319 211.12 51.3777 196.341 51.3777 196.341C53.1566 191.48 54.4849 185.996 55.4436 181.008C56.5525 175.201 57.1762 170.074 57.465 167.384C71.6608 166.61 106.475 165.121 120.116 168.354L120.22 173.815L121.214 192.762Z" fill="#EA9B7A"/>
<path d="M96.5527 183.952C96.3101 185.673 95.5247 186.989 94.8201 186.885C94.1039 186.781 93.7343 185.303 93.9769 183.583C94.2194 181.863 95.0049 180.546 95.7095 180.65C96.4256 180.754 96.8068 182.232 96.5527 183.952Z" fill="#D96C63"/>
<path d="M120.22 173.815C106.001 172.949 78.0368 172.649 55.4436 180.997C56.5525 175.189 57.1762 170.063 57.465 167.373C71.6608 166.599 106.475 165.109 120.116 168.342L120.22 173.815Z" fill="#D96C63"/>
<path d="M136.079 147.409C135.941 147.825 135.779 148.206 135.606 148.564C135.536 148.702 135.467 148.841 135.398 148.968C133.607 152.282 130.847 155.157 128.525 157.2C128.04 157.627 127.578 158.008 127.15 158.355C126.296 159.048 125.568 159.59 125.071 159.948C124.609 160.272 124.344 160.445 124.344 160.445C124.344 160.479 124.344 160.502 124.332 160.549C124.309 160.791 124.286 161.057 124.263 161.334C124.182 162.384 124.113 163.631 124.066 165.063C124.02 166.206 123.986 167.465 123.962 168.827C123.951 169.832 123.928 170.882 123.916 171.968C105.054 163.539 66.1972 168.862 50.5459 171.494C50.8347 170.143 51.0888 168.816 51.3314 167.522C52.4403 161.553 53.064 156.184 53.3066 151.37C53.6762 144.211 53.0524 133.45 51.5278 122.331C51.4353 121.604 51.3314 120.888 51.2274 120.172C51.1581 119.699 51.0888 119.237 51.008 118.764C50.4766 115.277 49.8529 111.778 49.1483 108.384C46.0643 93.5819 48.2242 78.0526 63.2402 76.2168C64.326 76.0782 65.4002 75.9627 66.4513 75.8473C73.5204 75.0968 79.3419 74.8312 80.959 74.7735C81.2594 74.762 81.4095 74.762 81.4095 74.762L110.425 83.1905L113.186 83.9872C114.768 84.4952 116.235 84.9917 117.598 85.4766C118.176 85.6845 118.742 85.8923 119.273 86.0886C120.682 86.6197 121.953 87.1277 123.119 87.6473C125.441 88.6749 127.289 89.6794 128.733 90.707C135.097 95.2214 134.116 100.325 133.954 110.404C133.954 110.451 133.954 110.497 133.954 110.543C133.954 110.67 133.954 110.797 133.954 110.936C133.954 110.993 133.954 111.051 133.954 111.109C133.954 111.524 133.954 111.928 133.954 112.344C133.965 113.649 134.012 114.942 134.092 116.235C134.196 118.14 134.37 120.034 134.578 121.881C134.658 122.62 134.739 123.359 134.832 124.098C134.913 124.791 135.005 125.472 135.097 126.153C136.218 134.974 137.662 142.699 136.079 147.409Z" fill="#0875F7"/>
<path d="M133.919 110.543C133.919 110.67 133.919 110.797 133.919 110.936C133.919 110.993 133.919 111.051 133.919 111.109C133.919 111.525 133.919 111.929 133.919 112.344L127.82 116.166C127.636 116.282 127.428 116.316 127.22 116.282C126.989 116.247 126.781 116.108 126.642 115.901C126.388 115.496 126.515 114.977 126.908 114.723L133.376 110.67C133.55 110.566 133.734 110.52 133.919 110.543Z" fill="#084FC7"/>
<path d="M93.7226 143.184C93.4916 143.184 93.2606 143.091 93.0873 142.907C92.7754 142.56 92.7985 142.017 93.145 141.706L98.8165 136.602C99.163 136.291 99.7059 136.314 100.018 136.66C100.33 137.007 100.307 137.549 99.96 137.861L94.2886 142.964C94.1269 143.114 93.9305 143.184 93.7226 143.184Z" fill="#084FC7"/>
<path d="M135.051 126.142L131.17 129.64C131.008 129.79 130.8 129.86 130.604 129.86C130.373 129.86 130.142 129.767 129.969 129.582C129.657 129.236 129.68 128.693 130.027 128.382L134.785 124.098C134.878 124.779 134.97 125.472 135.051 126.142Z" fill="#084FC7"/>
<path d="M82.2181 122.666C82.091 122.47 82.0333 122.228 82.091 121.985C82.195 121.523 82.657 121.246 83.1191 121.35L90.5462 123.105C91.0082 123.209 91.2854 123.671 91.1815 124.133C91.0775 124.595 90.6155 124.872 90.1535 124.768L82.7263 123.013C82.5069 122.955 82.3336 122.828 82.2181 122.666Z" fill="#084FC7"/>
<path d="M55.7207 137.237C55.4897 137.237 55.2587 137.145 55.0854 136.96C54.7735 136.614 54.7966 136.071 55.1432 135.759L60.8146 130.656C61.1611 130.344 61.704 130.367 62.0158 130.714C62.3277 131.06 62.3046 131.603 61.9581 131.915L56.2867 137.018C56.125 137.157 55.9171 137.237 55.7207 137.237Z" fill="#084FC7"/>
<path d="M121.745 136.014C121.814 135.794 121.987 135.598 122.207 135.506C122.634 135.321 123.142 135.517 123.327 135.944L126.377 142.941C126.561 143.368 126.365 143.876 125.938 144.061C125.51 144.246 125.002 144.05 124.817 143.622L121.768 136.625C121.687 136.429 121.675 136.21 121.745 136.014Z" fill="#084FC7"/>
<path d="M136.079 147.409C135.941 147.825 135.779 148.206 135.606 148.564C135.536 148.703 135.467 148.841 135.398 148.968L131.251 147.663C131.043 147.594 130.881 147.456 130.777 147.282C130.662 147.086 130.616 146.832 130.697 146.601C130.835 146.151 131.32 145.908 131.759 146.047L136.079 147.409Z" fill="#084FC7"/>
<path d="M112.654 148.021C112.885 147.998 113.128 148.068 113.313 148.241C113.659 148.553 113.682 149.095 113.37 149.442L108.242 155.088C107.93 155.434 107.387 155.457 107.041 155.145C106.694 154.834 106.671 154.291 106.983 153.944L112.111 148.299C112.262 148.137 112.458 148.044 112.654 148.021Z" fill="#084FC7"/>
<path d="M109.64 134.997C109.409 134.963 109.201 134.824 109.062 134.616C108.808 134.224 108.935 133.693 109.328 133.439L115.796 129.386C116.189 129.132 116.72 129.259 116.974 129.652C117.228 130.044 117.101 130.575 116.709 130.829L110.24 134.882C110.044 134.997 109.836 135.032 109.64 134.997Z" fill="#084FC7"/>
<path d="M113.752 110.428C113.902 110.601 113.994 110.832 113.96 111.086C113.913 111.548 113.486 111.894 113.024 111.836L105.435 111.005C104.973 110.959 104.627 110.532 104.684 110.07C104.73 109.608 105.158 109.262 105.62 109.319L113.209 110.151C113.428 110.174 113.613 110.278 113.752 110.428Z" fill="#084FC7"/>
<path d="M102.721 93.9746C102.778 93.7436 102.929 93.5474 103.148 93.4319C103.564 93.2125 104.084 93.3626 104.303 93.7783L107.918 100.498C108.138 100.914 107.988 101.433 107.572 101.653C107.156 101.872 106.636 101.722 106.417 101.306L102.801 94.5865C102.698 94.3902 102.674 94.1708 102.721 93.9746Z" fill="#084FC7"/>
<path d="M128.513 157.212C128.028 157.639 127.566 158.02 127.139 158.366L126.145 155.826C126.065 155.619 126.065 155.411 126.145 155.214C126.226 154.995 126.4 154.81 126.631 154.718C127.07 154.545 127.566 154.764 127.739 155.191L128.513 157.212Z" fill="#084FC7"/>
<path d="M58.747 144.281C58.6315 144.073 58.6084 143.83 58.7008 143.588C58.8625 143.149 59.3476 142.918 59.7865 143.08L66.9711 145.666C67.41 145.828 67.641 146.313 67.4793 146.751C67.3176 147.19 66.8325 147.421 66.3936 147.259L59.209 144.673C59.0011 144.604 58.8509 144.465 58.747 144.281Z" fill="#084FC7"/>
<path d="M62.2699 153.99C62.501 153.99 62.732 154.094 62.9052 154.279C63.2171 154.626 63.1824 155.168 62.8359 155.48L57.1183 160.537C56.7718 160.849 56.2289 160.814 55.917 160.468C55.6052 160.121 55.6398 159.579 55.9863 159.267L61.704 154.21C61.8657 154.048 62.062 153.979 62.2699 153.99Z" fill="#084FC7"/>
<path d="M72.6309 162.015C72.7811 162.2 72.8504 162.442 72.8042 162.685C72.7233 163.147 72.2844 163.458 71.8224 163.377L64.3029 162.096C63.8408 162.015 63.529 161.576 63.6098 161.114C63.6907 160.653 64.1296 160.341 64.5916 160.422L72.1112 161.703C72.3191 161.738 72.5039 161.853 72.6309 162.015Z" fill="#084FC7"/>
<path d="M78.9146 90.5917C78.8568 90.3723 78.8799 90.1183 79.0185 89.9105C79.2727 89.5179 79.804 89.4025 80.1967 89.6565L86.6074 93.7899C87.0001 94.044 87.1156 94.5751 86.8615 94.9676C86.6074 95.3602 86.076 95.4757 85.6833 95.2216L79.2727 91.0882C79.0994 90.9612 78.9723 90.788 78.9146 90.5917Z" fill="#084FC7"/>
<path d="M122.68 95.464C122.888 95.3485 123.131 95.3254 123.373 95.4062C123.812 95.5679 124.043 96.0528 123.893 96.4916L121.34 103.685C121.179 104.123 120.694 104.354 120.255 104.204C119.816 104.043 119.585 103.558 119.735 103.119L122.288 95.9258C122.357 95.718 122.495 95.5563 122.68 95.464Z" fill="#084FC7"/>
<path d="M119.25 86.0887L115.311 91.1458C115.022 91.5153 114.491 91.5846 114.121 91.2959C113.752 91.0073 113.682 90.4761 113.971 90.1067L117.575 85.4883C118.152 85.6846 118.707 85.8924 119.25 86.0887Z" fill="#084FC7"/>
<path d="M80.7049 155.873C80.7858 156.115 80.9937 156.288 81.2247 156.334C81.3402 156.358 81.4673 156.358 81.5828 156.311C81.7098 156.265 94.0576 152.27 107.041 157.651C113.636 160.387 119.504 161.426 124.251 161.334C124.274 161.057 124.297 160.791 124.321 160.549C124.321 160.514 124.332 160.48 124.332 160.456C124.332 160.456 124.598 160.283 125.06 159.96C120.393 160.191 114.422 159.198 107.572 156.369C94.0922 150.781 81.6636 154.822 81.1438 154.995C80.7858 155.111 80.5894 155.503 80.7049 155.873Z" fill="#084FC7"/>
<path d="M110.402 83.1907C108.773 85.7077 105.423 88.5596 98.6316 88.0746C89.264 87.3934 83.0959 78.4568 80.9474 74.7852C81.2362 74.7737 81.3979 74.7737 81.3979 74.7737L110.402 83.1907Z" fill="#084FC7"/>
<path d="M100.434 99.7707C100.711 99.8285 100.988 99.8631 101.265 99.8862C103.853 100.094 105.955 99.3435 107.503 97.6578C112.007 92.7392 110.159 81.5165 110.078 81.0431C110.009 80.6621 109.651 80.4081 109.281 80.4774C108.9 80.5467 108.646 80.9046 108.715 81.2741C108.739 81.3895 110.529 92.3005 106.486 96.7226C105.227 98.0966 103.552 98.6854 101.392 98.5122C92.3134 97.7848 82.1372 74.7275 82.0333 74.4966C81.8831 74.1502 81.4673 73.9885 81.1208 74.1386C80.7742 74.2887 80.6125 74.7044 80.7627 75.0508C81.167 75.9975 90.8118 97.8195 100.434 99.7707Z" fill="white"/>
<path d="M128.71 90.707C128.109 97.3575 129.749 108.338 134.046 116.235C133.942 114.538 133.896 112.818 133.919 111.109C133.919 111.051 133.919 110.993 133.919 110.936C133.919 110.762 133.931 110.589 133.931 110.416C134.092 100.325 135.074 95.2215 128.71 90.707Z" fill="#EA9B7A"/>
<path d="M75.3454 102.415C72.0188 115.254 59.8443 125.553 51.5278 122.343C51.4238 121.627 51.3314 120.9 51.2275 120.184C51.1582 119.711 51.0888 119.249 51.0195 118.775C50.4882 115.288 49.8645 111.79 49.1599 108.395C46.0758 93.5935 48.2474 78.0642 63.2518 76.2284C64.3375 76.0898 65.4118 75.9743 66.4629 75.8589C73.9478 79.0571 79.1687 87.6358 75.3454 102.415Z" fill="#EA9B7A"/>
<path d="M77.0548 92.6237L96.5525 163.909L89.599 155.896C92.1748 157.258 95.1549 158.32 98.4584 159.059C101.75 159.798 105.354 160.225 109.108 160.422C112.874 160.618 116.789 160.583 120.798 160.422C124.806 160.26 128.906 159.96 133.064 159.602H133.087C139.221 159.082 144.615 163.62 145.135 169.751C145.632 175.593 141.485 180.777 135.779 181.701C131.493 182.382 127.127 183.029 122.657 183.548C118.187 184.068 113.601 184.449 108.842 184.564C104.095 184.668 99.1745 184.495 94.0922 183.756C89.0214 183.017 83.7543 181.701 78.6027 179.473C75.3107 178.052 72.9659 175.351 71.8917 172.199L71.6491 171.46L48.2704 101.352C45.6368 93.4781 49.8991 84.9572 57.7767 82.3247C65.6543 79.6922 74.1787 83.9527 76.8123 91.8271C76.8931 92.0811 76.9855 92.3813 77.0548 92.6237Z" fill="#EA9B7A"/>
<path d="M85.7873 161.622C85.591 161.622 85.3946 161.518 85.2907 161.334C85.1289 161.057 85.2329 160.71 85.5101 160.549C85.6949 160.445 89.9572 158.031 94.4157 157.697C94.7392 157.674 95.0164 157.904 95.0395 158.228C95.0626 158.551 94.8316 158.828 94.5081 158.851C90.3152 159.175 86.1223 161.53 86.0876 161.553C85.9837 161.599 85.8797 161.622 85.7873 161.622Z" fill="#D96C63"/>
<path d="M92.8679 159.048C92.764 159.048 92.66 159.025 92.5676 158.967C89.8763 157.339 86.619 157.085 86.5843 157.085C86.2609 157.062 86.0299 156.785 86.053 156.473C86.0761 156.15 86.3417 155.919 86.6652 155.942C86.8038 155.953 90.2344 156.207 93.1567 157.985C93.4339 158.147 93.5148 158.505 93.353 158.782C93.2606 158.955 93.0643 159.048 92.8679 159.048Z" fill="#D96C63"/>
<path d="M110.263 121.477C118.892 123.221 122.669 114.307 122.703 114.215C122.854 113.857 122.68 113.453 122.322 113.314C121.964 113.164 121.56 113.337 121.421 113.695C121.283 114.03 118.025 121.639 110.54 120.126C102.674 118.533 88.0049 103.073 87.8663 102.911C87.6007 102.634 87.1617 102.623 86.8845 102.888C86.6073 103.154 86.5958 103.593 86.8614 103.87C87.4621 104.505 101.97 119.803 110.263 121.477Z" fill="#084FC7"/>
<path d="M96.6912 65.3406C96.6912 65.3406 82.8419 62.7312 78.9377 48.7606C75.2184 35.4596 78.083 28.5551 81.9525 21.3735C84.8632 15.9585 94.1038 8.64986 107.052 11.2708C120.128 13.9148 129.911 20.6346 131.355 31.3839C134.058 51.497 117.818 76.0322 96.6912 65.3406Z" fill="#39393B"/>
<path d="M79.5962 50.9082C79.342 50.9082 79.0995 50.7812 78.9724 50.5387C78.7183 50.1 72.8967 39.6277 77.7365 25.8418C80.7628 17.2285 86.7114 13.3837 91.1815 11.6634C96.0098 9.80447 100.064 9.98921 100.237 9.98921C100.63 10.0123 100.942 10.3471 100.919 10.7512C100.896 11.1438 100.572 11.4555 100.168 11.4325C100.133 11.4325 96.1946 11.2708 91.6436 13.0258C85.591 15.3696 81.375 19.8379 79.0995 26.3152C74.4907 39.4546 80.1737 49.7189 80.2314 49.8229C80.4278 50.1692 80.3123 50.608 79.9658 50.8043C79.8387 50.8851 79.7117 50.9082 79.5962 50.9082Z" fill="#FAAF3A"/>
<path d="M123.558 51.1392C123.558 51.1392 128.063 47.583 129.253 52.2938C130.443 57.0045 127.093 65.3754 121.849 62.8353L123.558 51.1392Z" fill="#D96C63"/>
<path d="M119.157 59.7986C116.917 60.5375 114.941 62.5234 114.433 64.9827C113.694 68.6543 116.073 72.2336 119.735 72.9841C123.408 73.723 126.989 71.3445 127.74 67.6845C128.294 64.9365 127.104 62.2348 124.921 60.7453C124.193 60.2373 123.35 59.8794 122.426 59.6947C122.403 59.6947 122.38 59.6831 122.357 59.6831C122.23 60.1449 122.276 60.5144 122.542 60.8031C123.281 60.9993 123.951 61.3342 124.54 61.7729C126.238 63.0661 127.15 65.2483 126.7 67.4766C126.076 70.571 123.038 72.58 119.943 71.9565C116.847 71.333 114.837 68.2964 115.461 65.2021C115.923 62.9506 117.586 61.3573 119.677 60.8493L119.157 59.7986Z" fill="#FAAF3A"/>
<path d="M109.905 71.3215L108.023 83.1214C108.023 83.1214 99.1862 92.1389 83.0498 75.9629C87.3813 72.7416 89.0331 65.2598 88.5249 60.4336C88.5249 60.4336 89.7954 61.1956 91.7591 62.9737C92.1402 63.3201 92.6369 63.5856 93.1105 63.9205C97.3727 66.8185 103.91 70.5825 109.905 71.3215Z" fill="#EA9B7A"/>
<path d="M109.905 71.3215L109.016 76.9097C104.176 74.7506 95.617 70.1438 91.7591 62.9622C92.1749 63.2624 92.6369 63.5741 93.1105 63.9089C97.3728 66.8185 103.91 70.5825 109.905 71.3215Z" fill="#39393B"/>
<path d="M127.924 48.2989C127.67 49.5458 127.439 50.7351 127.197 51.8666C126.943 53.0905 126.7 54.2451 126.457 55.3304C124.667 63.4934 123.2 67.8693 120.821 69.5088C108.773 77.7873 89.1717 61.0225 88.5364 60.4799C88.5248 60.4683 88.5248 60.4683 88.5248 60.4683C88.5133 59.51 88.5133 58.5517 88.5248 57.6165C88.675 49.6728 90.0264 42.5374 92.1749 35.9447C93.2491 28.74 98.8397 22.967 106.036 21.8817C113.498 20.7617 119.111 25.0799 122.623 26.985C127.924 29.8599 129.992 37.8844 127.924 48.2989Z" fill="#EA9B7A"/>
<path d="M92.5792 28.532C92.5792 28.532 101.011 12.3215 117.829 16.8475C134.647 21.3735 135.536 29.1786 135.837 33.0812C136.137 36.9837 127.127 30.0677 127.127 30.0677C127.127 30.0677 126.816 37.8727 123.812 35.4712C120.128 32.5154 116.016 26.1536 116.016 26.1536C116.016 26.1536 106.001 35.9907 96.4833 33.3352C91.0776 31.8342 92.5792 28.532 92.5792 28.532Z" fill="#39393B"/>
<path d="M113.243 64.1976C111.06 64.1976 109.559 62.6851 109.489 62.6043C109.258 62.3618 109.258 61.9808 109.501 61.7499C109.744 61.519 110.113 61.519 110.344 61.7614C110.425 61.8423 112.158 63.5626 114.445 62.7775C114.757 62.6736 115.103 62.8352 115.207 63.147C115.311 63.4587 115.149 63.8051 114.837 63.909C114.271 64.1168 113.74 64.1976 113.243 64.1976Z" fill="#D96C63"/>
<path d="M108.207 54.3835C108.207 54.3835 116.316 56.7851 120.52 56.7851C120.52 56.7851 118.418 62.789 112.412 60.6877C107.734 59.0481 108.207 54.3835 108.207 54.3835Z" fill="white"/>
<path d="M123.269 37.5034C123.269 37.5034 121.167 37.2841 121.502 39.3277C121.849 41.3713 126.411 40.1244 128.675 44.2117C128.664 44.2117 130.847 39.9281 123.269 37.5034Z" fill="#39393B"/>
<path d="M113.902 35.6097C113.902 35.6097 115.923 36.2332 114.814 37.9766C113.705 39.72 109.986 36.7989 106.313 39.6854C106.313 39.6854 105.966 34.8823 113.902 35.6097Z" fill="#39393B"/>
<path d="M110.24 50.2385C110.044 51.1968 107.895 51.5778 105.447 51.0814C102.998 50.5849 101.173 49.4072 101.369 48.4373C101.566 47.479 103.703 47.098 106.163 47.5945C108.612 48.091 110.437 49.2686 110.24 50.2385Z" fill="#D96C63"/>
<path d="M134.185 50.8734L127.636 49.7534C127.601 50.0305 127.532 50.3076 127.474 50.5732C127.462 50.6194 127.451 50.6655 127.428 50.7117L134.023 51.8317C134.289 51.8779 134.543 51.6931 134.589 51.4276C134.624 51.1736 134.462 50.908 134.185 50.8734Z" fill="white"/>
<path d="M116.697 45.2852C116.697 44.9504 116.686 44.6156 116.639 44.2923C116.42 42.5142 115.634 40.8747 114.433 39.6046C113.324 38.4385 111.88 37.5841 110.206 37.2146C110.183 37.203 110.148 37.203 110.125 37.1915C106.29 36.4064 102.513 38.4154 100.953 41.833C100.815 42.1332 100.699 42.4334 100.595 42.7451C100.503 43.0222 100.434 43.3109 100.364 43.5995C99.9255 45.7471 100.353 47.8715 101.427 49.6034C101.785 50.1923 102.236 50.7349 102.732 51.2083C103.818 52.259 105.193 53.021 106.775 53.3443C109.443 53.8985 112.065 53.0903 113.948 51.4046C115.219 50.2731 116.154 48.7259 116.524 46.9363C116.524 46.9248 116.524 46.9248 116.524 46.9132C116.639 46.3706 116.697 45.8163 116.697 45.2852ZM106.971 52.386C106.925 52.3745 106.891 52.3745 106.856 52.3629C104.788 51.9011 103.113 50.5848 102.132 48.8645C101.288 47.375 100.953 45.597 101.323 43.7958C101.404 43.4263 101.508 43.0684 101.635 42.722C101.647 42.6989 101.658 42.6758 101.658 42.6527C102.686 39.9856 105.193 38.1729 108.011 38.0113C108.635 37.9766 109.27 38.0113 109.917 38.1498C111.303 38.4385 112.504 39.0966 113.463 40.0087C115.219 41.6829 116.097 44.1999 115.577 46.74C114.757 50.6657 110.899 53.2058 106.971 52.386Z" fill="white"/>
<path d="M131.367 41.9021C131.147 41.7867 130.916 41.6828 130.673 41.5789C130.396 41.4634 130.108 41.371 129.819 41.2787C129.611 41.2209 129.414 41.1632 129.195 41.1286C128.802 41.0477 128.421 41.0016 128.04 40.9785C127.578 40.9438 127.116 40.9554 126.665 41.0131C125.406 41.1517 124.217 41.5673 123.166 42.2254C122.01 42.9413 121.029 43.9458 120.359 45.1581C120.174 45.4699 120.024 45.7931 119.885 46.1164C119.874 46.1395 119.874 46.1511 119.862 46.1742C119.689 46.6129 119.55 47.0747 119.446 47.5481C118.788 50.7348 120.07 53.8753 122.484 55.7458C123.269 56.3577 124.17 56.8311 125.164 57.1198C125.314 57.1659 125.464 57.2121 125.626 57.2352C125.707 57.2583 125.776 57.2698 125.857 57.2929C126.654 57.4546 127.451 57.5008 128.225 57.4315C128.352 57.4199 128.479 57.4084 128.594 57.3969C128.929 57.3507 129.264 57.2929 129.599 57.2006C130.211 57.0389 130.812 56.808 131.367 56.5194C133.48 55.4109 135.097 53.4019 135.617 50.8849C136.368 47.2018 134.543 43.5763 131.367 41.9021ZM134.659 50.6771C134.624 50.8387 134.589 50.9888 134.543 51.1389C134.485 51.3583 134.416 51.5661 134.335 51.7855C133.758 53.3211 132.695 54.5681 131.355 55.3879C130.87 55.688 130.339 55.9305 129.784 56.1152C129.438 56.2307 129.091 56.3115 128.721 56.3693C128.617 56.3924 128.514 56.4039 128.41 56.4154C127.647 56.5078 126.85 56.4847 126.053 56.3231C125.984 56.3115 125.903 56.2884 125.834 56.2769C125.788 56.2653 125.741 56.2538 125.707 56.2423C124.54 55.9421 123.5 55.3648 122.657 54.5912C122.53 54.4757 122.415 54.3603 122.299 54.2448C120.694 52.5822 119.908 50.1691 120.405 47.7329C120.52 47.1902 120.694 46.6591 120.913 46.1742C121.641 44.5808 122.911 43.3454 124.448 42.618C125.395 42.1677 126.446 41.9252 127.532 41.9252C127.705 41.9252 127.878 41.9368 128.063 41.9483C128.375 41.9714 128.687 42.0176 128.999 42.0753C129.23 42.1215 129.449 42.1792 129.669 42.2485C129.969 42.3409 130.258 42.4564 130.546 42.5834C130.766 42.6873 130.985 42.8027 131.205 42.9182C133.815 44.4654 135.305 47.5481 134.659 50.6771Z" fill="white"/>
<path d="M90.5116 43.3108C90.4538 43.2993 90.3961 43.2762 90.3499 43.2415C90.1189 43.0914 90.0611 42.7912 90.1997 42.5719C93.4801 37.4454 101.369 42.0523 101.439 42.0985C101.67 42.237 101.75 42.5372 101.612 42.7681C101.473 42.9991 101.173 43.0799 100.942 42.9413C100.873 42.8951 93.792 38.7732 91.0198 43.103C90.9043 43.2762 90.6964 43.357 90.5116 43.3108Z" fill="white"/>
<path d="M120.243 46.3938C120.116 46.3707 120.012 46.2899 119.931 46.186C118.88 44.5695 116.639 45.2969 116.616 45.2969C116.362 45.3777 116.085 45.2392 116.004 44.9852C115.923 44.7312 116.062 44.4541 116.316 44.3732C117.344 44.0269 119.596 43.8537 120.763 45.6548C120.913 45.8858 120.844 46.186 120.613 46.3245C120.497 46.4053 120.359 46.4284 120.243 46.3938Z" fill="white"/>
<g opacity="0.8">
<path d="M127.197 51.8664C126.943 53.0903 126.7 54.2449 126.457 55.3302C124.228 54.7876 122.623 53.6907 122.807 52.7786C122.992 51.8664 124.921 51.4854 127.197 51.8664Z" fill="#D96C63"/>
</g>
<path d="M111.961 45.4008C111.696 46.7286 110.876 47.6753 110.136 47.5252C109.397 47.3751 109.016 46.1859 109.282 44.8581C109.547 43.5303 110.367 42.5836 111.107 42.7337C111.846 42.8838 112.239 44.073 111.961 45.4008Z" fill="#39393B"/>
<path d="M125.06 48.0563C124.794 49.3841 123.974 50.3309 123.235 50.1808C122.496 50.0307 122.114 48.8414 122.38 47.5136C122.646 46.1859 123.466 45.2391 124.205 45.3892C124.944 45.5277 125.337 46.7285 125.06 48.0563Z" fill="#39393B"/>
<path d="M118.303 51.601C118.938 51.728 119.388 51.7049 119.423 51.7049C119.573 51.6934 119.723 51.6241 119.827 51.5086C119.931 51.3932 119.966 51.2315 119.954 51.0814L119.111 44.9043C119.065 44.6041 118.788 44.3848 118.488 44.431C118.187 44.4771 117.968 44.7542 118.014 45.0544L118.765 50.5619C118.21 50.4811 117.379 50.2501 116.628 49.6266C116.397 49.4304 116.039 49.465 115.842 49.6959C115.646 49.9268 115.681 50.2848 115.912 50.4811C116.732 51.1623 117.621 51.4625 118.303 51.601Z" fill="#39393B"/>
<path d="M93.9306 55.9768C93.8382 56.1154 91.274 59.7985 88.5364 60.4682C88.5249 60.4566 88.5249 60.4566 88.5249 60.4566C88.5018 59.4983 88.5133 58.54 88.5249 57.6048C88.6173 57.6163 91.2393 57.6856 93.9306 55.9768Z" fill="#39393B"/>
<path d="M93.3762 46.3013C93.3762 46.3013 89.5182 38.1267 84.5168 42.9183C80.3932 46.8786 83.997 60.0872 91.1584 57.2584L93.3762 46.3013Z" fill="#EA9B7A"/>
<path d="M83.893 53.3445C81.6522 54.0834 79.677 56.0693 79.1688 58.5286C78.4295 62.2002 80.809 65.7795 84.4706 66.53C88.1437 67.2689 91.7244 64.8904 92.4752 61.2304C93.0297 58.4824 91.8399 55.7807 89.6568 54.2912C88.9291 53.7832 88.0859 53.4253 87.1619 53.2406C87.1388 53.2406 87.1157 53.229 87.0926 53.229C86.9655 53.6908 87.0233 54.0603 87.2774 54.349C88.0166 54.5452 88.6866 54.8801 89.2757 55.3188C90.9736 56.612 91.8861 58.7942 91.4357 61.0225C90.8119 64.1169 87.7741 66.1259 84.6785 65.5024C81.5829 64.8789 79.573 61.8423 80.1968 58.748C80.6473 56.4965 82.3221 54.9032 84.4128 54.3952L83.893 53.3445Z" fill="#FAAF3A"/>
<path d="M90.8581 54.9723C90.8812 54.9723 90.8928 54.9838 90.9159 54.9838C91.2162 55.0069 91.4934 54.7876 91.5165 54.4758C92.0825 48.2987 87.416 45.1697 87.2196 45.0427C86.9655 44.8696 86.619 44.9504 86.4457 45.2044C86.2725 45.4584 86.3533 45.8048 86.6074 45.978C86.7807 46.0934 90.9159 48.8876 90.4076 54.3834C90.3845 54.6605 90.5809 54.9146 90.8581 54.9723Z" fill="#39393B"/>
<path d="M86.4457 50.6427C86.5613 50.6658 86.6999 50.6542 86.8154 50.585C87.3698 50.2963 88.9985 49.6497 89.8879 50.0769C90.1651 50.2155 90.5 50.1 90.6271 49.8229C90.7657 49.5458 90.6502 49.211 90.373 49.084C88.8252 48.3335 86.5612 49.4766 86.3071 49.6036C86.0299 49.7421 85.926 50.0769 86.0761 50.3541C86.1454 50.5157 86.284 50.6081 86.4457 50.6427Z" fill="#39393B"/>
<path d="M98.3429 32.4231C98.3429 32.4231 93.1567 46.4976 92.8794 49.3379C92.4983 53.2058 87.3813 39.951 92.5214 28.636L98.3429 32.4231Z" fill="#39393B"/>
<path d="M184.985 330.829H163.628C163.628 330.829 158.684 307.136 157.032 293.859C155.369 280.569 154.514 249.083 154.514 249.083C154.514 249.083 137.5 254.614 101.878 252.524C22.9513 247.917 52.8793 189.956 52.8793 189.956C55.5475 193.639 75.5534 198.708 86.7114 200.475C120.982 203.765 147.029 209.584 164.864 217.274C169.161 219.121 172.972 221.084 176.322 223.151C180.619 225.795 183.31 233.843 184.939 244.407C189.802 276.159 184.985 330.829 184.985 330.829Z" fill="#39393B"/>
<path d="M166.284 319.41C165.926 319.41 165.615 319.156 165.534 318.798C162.45 303.557 161.422 284.587 160.59 269.347C159.897 256.704 159.25 244.765 157.621 243.333C156.305 242.167 150.841 243.079 143.934 244.222C130.177 246.509 109.386 249.949 86.4689 244.627C73.9825 241.717 64.7997 235.655 59.186 226.603C49.4949 210.993 53.9189 191.631 53.9651 191.434C54.0575 191.019 54.4733 190.765 54.8891 190.868C55.305 190.961 55.5591 191.377 55.4551 191.792C55.4089 191.977 51.1467 210.739 60.5028 225.807C65.897 234.501 74.7564 240.331 86.8269 243.137C109.455 248.402 130.061 244.985 143.703 242.721C151.869 241.371 156.801 240.551 158.661 242.19C160.671 243.968 161.237 252.697 162.138 269.266C162.969 284.46 163.997 303.361 167.058 318.498C167.139 318.913 166.874 319.318 166.458 319.398C166.388 319.41 166.331 319.41 166.284 319.41Z" fill="#585859"/>
<path d="M185.401 319.814H185.389L161.641 319.306C161.214 319.294 160.879 318.948 160.89 318.521C160.902 318.094 161.248 317.759 161.676 317.77L185.424 318.278C185.851 318.29 186.186 318.636 186.175 319.063C186.152 319.479 185.805 319.814 185.401 319.814Z" fill="#585859"/>
<path d="M184.396 358.17H169.334L166.423 340.504L164.841 330.829H183.564L183.853 340.504L184.396 358.17Z" fill="#EA9B7A"/>
<path d="M184.396 358.17H169.334L167.162 345.019L166.423 340.504H183.853L184.003 345.181L184.396 358.17Z" fill="#FAAF3A"/>
<path d="M184.003 345.181L167.162 345.019L166.423 340.504H183.853L184.003 345.181Z" fill="#C77E2E"/>
<path d="M221.589 381.966H164.586C164.159 381.192 163.928 380.107 163.836 378.802C163.478 373.976 165.014 366.287 165.765 361.437C165.857 360.871 165.938 360.34 165.996 359.867C166.1 359.059 166.169 358.378 166.169 357.881C166.169 353.921 169.669 354.602 169.669 354.602C175.433 360.26 181.97 351.785 185.782 354.556C185.782 354.556 185.932 354.671 186.29 354.937C186.614 355.191 187.099 355.583 187.769 356.149C188.739 356.957 190.102 358.135 191.95 359.798C196.478 363.873 204.171 366.552 210.72 369.288C211.552 369.635 212.326 369.981 213.053 370.339C213.596 370.605 214.116 370.87 214.601 371.124C219.961 374.011 221.659 376.782 222.051 378.791C222.433 380.731 221.589 381.966 221.589 381.966Z" fill="#0875F7"/>
<path d="M214.613 371.147C213.146 372.314 209.877 374.657 207.255 374.657C207.139 374.657 207.024 374.657 206.908 374.646C205.06 374.496 198.268 371.159 192.736 368.122C189.571 366.379 186.672 364.67 184.592 363.296C181.185 361.045 180.584 360.19 180.457 359.59C179.961 357.338 183.68 355.78 186.29 354.96C186.614 355.214 187.099 355.607 187.769 356.172C184.535 357.05 181.866 358.435 181.993 359.22C182.317 359.89 185.69 362.453 193.752 366.875C199.909 370.247 205.742 372.96 207.035 373.076C208.791 373.214 211.367 371.621 213.053 370.362C213.608 370.616 214.128 370.882 214.613 371.147Z" fill="#084FC7"/>
<path d="M221.589 381.966H164.587C164.159 381.193 163.928 380.107 163.836 378.802H222.063C222.433 380.731 221.589 381.966 221.589 381.966Z" fill="#084FC7"/>
<path d="M170.408 381.966H168.71C170.397 380.038 171.979 377.07 171.771 372.845C171.494 367.21 168.121 363.423 165.765 361.437C165.857 360.871 165.938 360.34 165.996 359.867C168.525 361.795 172.788 366.032 173.122 372.775C173.33 376.816 172.002 379.83 170.408 381.966Z" fill="#084FC7"/>
<path d="M190.991 363.169C190.576 363.169 190.183 362.881 190.079 362.453C189.952 361.945 190.264 361.437 190.76 361.31L194.318 360.421C194.826 360.294 195.335 360.606 195.462 361.102C195.589 361.61 195.277 362.118 194.78 362.245L191.222 363.135C191.142 363.158 191.072 363.169 190.991 363.169Z" fill="white"/>
<path d="M187.457 360.213C187.03 360.213 186.648 359.925 186.544 359.497C186.417 358.989 186.729 358.481 187.226 358.354L190.784 357.465C191.292 357.338 191.8 357.65 191.927 358.147C192.054 358.655 191.742 359.163 191.246 359.29L187.688 360.179C187.607 360.202 187.526 360.213 187.457 360.213Z" fill="white"/>
<path d="M194.549 365.236C194.133 365.236 193.741 364.947 193.637 364.52C193.51 364.012 193.821 363.504 194.318 363.389L197.876 362.5C198.384 362.373 198.892 362.684 199.019 363.181C199.146 363.689 198.834 364.197 198.338 364.324L194.78 365.213C194.711 365.236 194.63 365.236 194.549 365.236Z" fill="white"/>
<path d="M198.118 367.233C197.702 367.233 197.31 366.945 197.206 366.517C197.079 366.009 197.391 365.501 197.887 365.386L201.445 364.497C201.953 364.37 202.461 364.682 202.588 365.178C202.716 365.686 202.404 366.194 201.907 366.321L198.349 367.21C198.268 367.222 198.188 367.233 198.118 367.233Z" fill="white"/>
<path d="M201.999 369.069C201.583 369.069 201.191 368.781 201.087 368.353C200.96 367.845 201.272 367.337 201.768 367.222L205.326 366.333C205.834 366.206 206.342 366.518 206.469 367.014C206.597 367.522 206.285 368.03 205.788 368.157L202.23 369.046C202.149 369.058 202.069 369.069 201.999 369.069Z" fill="white"/>
<path d="M206.204 370.639C205.776 370.639 205.395 370.351 205.291 369.924C205.164 369.416 205.476 368.907 205.973 368.78L209.53 367.891C210.039 367.764 210.547 368.076 210.674 368.573C210.801 369.081 210.489 369.589 209.992 369.716L206.435 370.605C206.354 370.628 206.285 370.639 206.204 370.639Z" fill="white"/>
<path d="M263.646 189.09V193.824C263.646 196.549 262.005 198.754 259.973 198.754H4.1583C2.12537 198.754 0.485168 196.549 0.485168 193.824V189.09C0.485168 186.365 2.12537 184.16 4.1583 184.16H259.961C262.005 184.172 263.646 186.377 263.646 189.09Z" fill="#21B573"/>
<path d="M263.646 190.591H0.485168V192.762H263.646V190.591Z" fill="#217C58"/>
<path d="M255.964 210.912H15.5011C14.4269 210.912 13.549 210.035 13.549 208.961V198.685H257.905V208.961C257.905 210.046 257.039 210.912 255.964 210.912Z" fill="#217C58"/>
<path d="M245.164 271.24H30.1243V279.622H245.164V271.24Z" fill="#217C58"/>
<path d="M14.6232 383.455L56.2521 210.912H41.6289L0 383.455H14.6232Z" fill="#21B573"/>
<path d="M260.377 383.455L218.748 210.912H233.371L275 383.455H260.377Z" fill="#21B573"/>
<path d="M23.8484 144.51L19.3384 145.2L24.5515 179.223L29.0616 178.532L23.8484 144.51Z" fill="#FAAF3A"/>
<path d="M23.8524 144.5L19.3361 145.192L20.3294 141.74L20.8492 139.962L21.8772 141.509L23.8524 144.5Z" fill="#EA9B7A"/>
<path d="M28.6784 176.056L24.1683 176.746L24.5478 179.223L29.0579 178.532L28.6784 176.056Z" fill="#39393B"/>
<path d="M29.0618 180.535L25.1461 181.135C24.9844 181.158 24.8227 181.043 24.7996 180.881L24.5455 179.207L29.0618 178.514L29.3159 180.188C29.3506 180.35 29.2351 180.512 29.0618 180.535Z" fill="#DF615C"/>
<path d="M21.8773 141.509L20.3295 141.74L20.8493 139.962L21.8773 141.509Z" fill="#39393B"/>
<path d="M28.4168 174.281L23.9067 174.972L24.1778 176.741L28.6879 176.05L28.4168 174.281Z" fill="#C77E2E"/>
<path d="M20.7222 146.694L24.5801 171.887C24.6148 172.072 24.788 172.21 24.9729 172.176C25.1577 172.141 25.2963 171.968 25.2616 171.783L21.4037 146.59C21.369 146.405 21.1958 146.266 21.0109 146.301C20.8146 146.324 20.6875 146.497 20.7222 146.694Z" fill="#C77E2E"/>
<path d="M22.4779 146.416L26.3359 171.61C26.3705 171.795 26.5438 171.933 26.7286 171.898C26.925 171.864 27.052 171.691 27.0174 171.506L23.1594 146.313C23.1248 146.128 22.9515 145.989 22.7667 146.024C22.5819 146.059 22.4548 146.232 22.4779 146.416Z" fill="#C77E2E"/>
<path d="M32.0086 144.655L27.4461 144.67L27.5593 179.088L32.1219 179.073L32.0086 144.655Z" fill="#21B573"/>
<path d="M32.0187 144.65L27.4446 144.673L28.9462 141.405L29.7201 139.72L30.494 141.405L32.0187 144.65Z" fill="#EA9B7A"/>
<path d="M32.1189 176.568L27.5563 176.583L27.5646 179.088L32.1271 179.073L32.1189 176.568Z" fill="#39393B"/>
<path d="M31.8339 181.066L27.872 181.078C27.6988 181.078 27.5717 180.939 27.5717 180.777V179.092L32.1343 179.08V180.766C32.1343 180.927 31.9956 181.066 31.8339 181.066Z" fill="#DF615C"/>
<path d="M30.494 141.405H28.9462L29.7201 139.72L30.494 141.405Z" fill="#39393B"/>
<path d="M32.1085 174.778L27.546 174.793L27.5518 176.583L32.1144 176.568L32.1085 174.778Z" fill="#217C58"/>
<path d="M28.5882 146.359L28.6691 171.841C28.6691 172.037 28.8308 172.187 29.0156 172.187C29.2119 172.187 29.3621 172.025 29.3621 171.841L29.2812 146.359C29.2812 146.162 29.1195 146.012 28.9347 146.012C28.7384 146.012 28.5882 146.174 28.5882 146.359Z" fill="#217C58"/>
<path d="M30.3785 146.359L30.4594 171.841C30.4594 172.037 30.6211 172.187 30.8059 172.187C31.0023 172.187 31.1524 172.025 31.1524 171.841L31.0716 146.359C31.0716 146.162 30.9099 146.012 30.7251 146.012C30.5287 146.001 30.3785 146.162 30.3785 146.359Z" fill="#217C58"/>
<path d="M35.3703 144.484L30.5291 178.562L35.0464 179.203L39.8877 145.125L35.3703 144.484Z" fill="#0875F7"/>
<path d="M39.8965 145.135L35.3686 144.5L37.3207 141.486L38.3256 139.927L38.8685 141.706L39.8965 145.135Z" fill="#EA9B7A"/>
<path d="M35.4059 176.738L30.8885 176.097L30.5361 178.577L35.0535 179.219L35.4059 176.738Z" fill="#39393B"/>
<path d="M34.4676 181.147L30.5519 180.592C30.3902 180.569 30.2747 180.419 30.2978 180.246L30.5404 178.572L35.0567 179.218L34.8141 180.893C34.791 181.054 34.6409 181.17 34.4676 181.147Z" fill="#DF615C"/>
<path d="M38.8684 141.706L37.3206 141.486L38.3255 139.927L38.8684 141.706Z" fill="#39393B"/>
<path d="M31.1452 174.316L30.8933 176.088L35.4107 176.73L35.6626 174.958L31.1452 174.316Z" fill="#084FC7"/>
<path d="M36.2579 146.335L32.6772 171.563C32.6541 171.76 32.7812 171.933 32.9775 171.956C33.1739 171.979 33.3471 171.852 33.3702 171.656L36.951 146.428C36.9741 146.232 36.847 146.058 36.6507 146.035C36.4658 146.012 36.281 146.151 36.2579 146.335Z" fill="#084FC7"/>
<path d="M38.0253 146.59L34.4445 171.817C34.4214 172.014 34.5485 172.187 34.7449 172.21C34.9412 172.233 35.1145 172.106 35.1376 171.91L38.7183 146.682C38.7414 146.486 38.6144 146.312 38.418 146.289C38.2332 146.266 38.0484 146.393 38.0253 146.59Z" fill="#084FC7"/>
<path d="M41.3748 158.263L41.1438 160.11L40.9243 161.796L40.5893 164.336L40.3814 165.998L40.0465 168.562L39.8385 170.201L39.5036 172.788L39.2957 174.404L38.9607 177.013L38.7528 178.607L38.4062 181.239L38.2099 182.809L38.0366 184.172H20.0868L19.9135 182.809L19.7056 181.239L19.3706 178.607L19.1627 177.013L18.8277 174.404L18.6198 172.788L18.2849 170.201L18.0654 168.562L17.742 165.998L17.5225 164.336L17.1991 161.796L16.9796 160.11L16.7371 158.263H41.3748Z" fill="#DF615C"/>
<path d="M41.1437 160.11L40.9242 161.796H17.199L16.9796 160.11H41.1437Z" fill="#B11722"/>
<path d="M40.5892 164.336L40.3813 165.999H17.7419L17.5224 164.336H40.5892Z" fill="#B11722"/>
<path d="M40.0463 168.562L39.8384 170.201H18.2847L18.0652 168.562H40.0463Z" fill="#B11722"/>
<path d="M39.5034 172.788L39.2955 174.404H18.8276L18.6197 172.788H39.5034Z" fill="#B11722"/>
<path d="M38.9606 177.013L38.7526 178.607H19.3705L19.1626 177.013H38.9606Z" fill="#B11722"/>
<path d="M38.4062 181.239L38.2098 182.81H19.9134L19.7055 181.239H38.4062Z" fill="#B11722"/>
<path d="M262.156 92.6582L246.851 157.362L246.447 159.059L245.419 163.412C244.968 165.306 243.293 166.633 241.353 166.633H138.251C135.548 166.633 133.561 164.116 134.185 161.495L150.922 90.7416C151.372 88.8596 153.047 87.5318 154.988 87.5318H258.09C260.781 87.5202 262.779 90.0373 262.156 92.6582Z" fill="#39393B"/>
<path d="M246.851 157.362L246.447 159.059H139.394V157.362H246.851Z" fill="#585859"/>
<path d="M179.799 103.534C178.944 108.118 174.532 111.836 169.946 111.836C165.36 111.836 162.334 108.118 163.189 103.534C164.044 98.9507 168.456 95.2329 173.042 95.2329C177.627 95.2329 180.654 98.9507 179.799 103.534Z" fill="#FAAF3A"/>
<path d="M170.42 101.953C170.246 102.865 169.784 103.615 169.392 103.615C168.987 103.615 168.802 102.876 168.976 101.953C169.149 101.041 169.611 100.29 170.004 100.29C170.396 100.29 170.581 101.029 170.42 101.953Z" fill="#39393B"/>
<path d="M174.751 101.953C174.578 102.865 174.116 103.615 173.723 103.615C173.319 103.615 173.134 102.876 173.307 101.953C173.481 101.041 173.943 100.29 174.335 100.29C174.74 100.29 174.924 101.029 174.751 101.953Z" fill="#39393B"/>
<path d="M170.812 107.576C167.243 107.576 167.093 104.008 167.093 103.973C167.081 103.777 167.243 103.581 167.451 103.546C167.659 103.5 167.821 103.627 167.832 103.823C167.832 103.95 167.971 106.86 170.962 106.86C173.943 106.86 175.167 103.95 175.225 103.823C175.306 103.627 175.525 103.5 175.71 103.546C175.895 103.592 175.987 103.777 175.906 103.973C175.86 104.008 174.381 107.576 170.812 107.576Z" fill="#39393B"/>
<path d="M227.457 142.306C227.55 146.601 234.827 151.981 234.827 151.981C234.827 151.981 243.282 146.601 244.31 142.306C245.419 137.653 240.105 136.221 236.166 139.731C232.99 136.221 227.365 137.641 227.457 142.306Z" fill="#DF615C"/>
<path d="M212.06 129.848C211.563 134.305 207.555 137.907 203.108 137.907C198.661 137.907 195.439 134.293 195.935 129.848C196.432 125.391 200.44 121.789 204.887 121.789C209.334 121.789 212.545 125.391 212.06 129.848Z" fill="#585859"/>
<path d="M159.065 87.5203L141.242 166.633H138.239C135.536 166.633 133.55 164.116 134.173 161.495L150.91 90.7416C151.361 88.8596 153.036 87.5203 154.976 87.5203H159.065Z" fill="#585859"/>
<path d="M188.936 166.645L185.805 184.218H196.132L199.262 166.645H188.936Z" fill="white"/>
<path d="M170.339 181.193L172.453 178.226C173.203 177.163 174.428 176.54 175.733 176.54H204.055C205.557 176.54 206.932 177.371 207.625 178.699L209.045 181.424C209.715 182.694 208.791 184.229 207.347 184.229H171.898C170.35 184.218 169.438 182.463 170.339 181.193Z" fill="white"/>
<path d="M111.326 184.218H196.409L197.333 181.008C197.91 178.988 196.397 176.979 194.295 176.979H115.785C114.375 176.979 113.14 177.914 112.747 179.265L111.326 184.218Z" fill="white"/>
<path d="M222.895 66.4028L185.262 66.3797C183.807 66.3797 182.617 65.1904 182.617 63.7357L182.629 40.6206C182.629 39.1658 183.818 37.9766 185.274 37.9766L222.906 37.9997C224.362 37.9997 225.551 39.1889 225.551 40.6437L225.54 63.7587C225.54 65.2251 224.35 66.4028 222.895 66.4028Z" fill="#DF615C"/>
<path d="M220.654 62.1423L217.212 75.0854L211.217 62.9159L220.654 62.1423Z" fill="#DF615C"/>
<path d="M213.585 50.0998C212.822 54.9491 203.755 61.0223 203.755 61.0223C203.755 61.0223 195.034 54.9376 194.538 50.0767C193.995 44.8117 200.232 43.2068 204.148 47.1787C208.283 43.2184 214.428 44.8348 213.585 50.0998Z" fill="white"/>
</svg>
