<svg width="48" height="35" viewBox="0 0 48 35" fill="none" xmlns="http://www.w3.org/2000/svg">
<g clip-path="url(#clip0_2_2646)">
<path d="M7.79676 26.7131C8.08643 26.4436 8.48472 26.2864 8.90715 26.2864H47.2154C47.9154 26.2864 48.2655 27.0724 47.7706 27.5328L40.2031 34.5732C39.9134 34.8427 39.5151 34.9999 39.0927 34.9999H0.784441C0.0844163 34.9999 -0.265596 34.2139 0.229249 33.7535L7.79676 26.7131Z" fill="white"/>
<path d="M7.79664 0.426692C8.09837 0.157202 8.49667 0 8.90703 0H47.2153C47.9153 0 48.2653 0.786012 47.7705 1.24639L40.203 8.28681C39.9133 8.5563 39.515 8.71351 39.0926 8.71351H0.784319C0.0842942 8.71351 -0.265718 7.92749 0.229127 7.46712L7.79664 0.426692Z" fill="white"/>
<path d="M40.2031 13.4858C39.9134 13.2163 39.5151 13.0591 39.0927 13.0591H0.784441C0.0844163 13.0591 -0.265596 13.8451 0.229249 14.3055L7.79676 21.3459C8.08643 21.6154 8.48472 21.7726 8.90715 21.7726H47.2154C47.9154 21.7726 48.2655 20.9866 47.7706 20.5262L40.2031 13.4858Z" fill="white"/>
</g>
<defs>
<clipPath id="clip0_2_2646">
<rect width="48" height="35" fill="white"/>
</clipPath>
</defs>
</svg>
