<svg width="27" height="25" viewBox="0 0 27 25" fill="none" xmlns="http://www.w3.org/2000/svg">
<path d="M12.1889 0.757995C12.4978 -0.142778 13.7718 -0.142775 14.0807 0.757998L16.5222 7.87661C16.6608 8.28076 17.0409 8.55219 17.4681 8.55219H25.249C26.2307 8.55219 26.6247 9.81929 25.8159 10.3759L19.6158 14.6435C19.2462 14.8979 19.0913 15.3673 19.2368 15.7917L21.6268 22.7599C21.9395 23.6718 20.908 24.4547 20.1139 23.9081L13.7018 19.4946C13.3603 19.2596 12.9093 19.2596 12.5678 19.4946L6.15578 23.9081C5.36168 24.4547 4.33014 23.6718 4.64289 22.7599L7.03279 15.7917C7.17835 15.3673 7.02343 14.8979 6.65386 14.6435L0.453696 10.3759C-0.355015 9.81929 0.0389109 8.55219 1.02067 8.55219H8.80152C9.22877 8.55219 9.60882 8.28075 9.74743 7.87661L12.1889 0.757995Z" fill="#2CD2AB"/>
</svg>
