<svg width="26" height="24" viewBox="0 0 26 24" fill="none" xmlns="http://www.w3.org/2000/svg">
<path d="M11.6778 0.936975C11.9766 0.014513 13.2816 0.0145164 13.5804 0.936978L15.823 7.86035C15.9566 8.27281 16.3408 8.55219 16.7744 8.55219H24.0381C25.0061 8.55219 25.4094 9.79023 24.6271 10.3603L18.7453 14.647C18.3959 14.9016 18.2497 15.352 18.3829 15.7633L20.6283 22.6953C20.9269 23.6171 19.8711 24.3823 19.088 23.8116L13.2181 19.5336C12.8671 19.2778 12.3911 19.2778 12.0401 19.5336L6.1702 23.8116C5.3871 24.3823 4.33129 23.6171 4.62989 22.6953L6.87529 15.7633C7.00852 15.352 6.86233 14.9016 6.51293 14.647L0.631114 10.3603C-0.151156 9.79023 0.252117 8.55219 1.22009 8.55219H8.48384C8.9174 8.55219 9.30158 8.27281 9.43518 7.86035L11.6778 0.936975Z" fill="#2CD2AB"/>
</svg>
